<?xml version="1.0" encoding="UTF-8"?><svg id="Bad_Mushroom" xmlns="http://www.w3.org/2000/svg" viewBox="0 0 895.68 948.41"><defs><style>.cls-1{fill:#b3b7b5;}.cls-1,.cls-2,.cls-3,.cls-4,.cls-5,.cls-6,.cls-7,.cls-8,.cls-9{stroke-width:0px;}.cls-10{stroke:#fff;}.cls-10,.cls-11{stroke-miterlimit:10;stroke-width:17.9px;}.cls-10,.cls-7{fill:#820000;}.cls-2{fill:#fded91;}.cls-11{stroke:red;}.cls-11,.cls-8{fill:#fff;}.cls-3{fill:#dfdfdf;}.cls-4{fill:#d1b36c;}.cls-5{fill:#ff1d25;}.cls-6{fill:#a00;}.cls-9{fill:#99824d;}</style></defs><path class="cls-7" d="m879.32,628.18c-2.69,9.23-6.97,17.81-10.7,26.63-5.37,12.74-12.07,24.66-19.67,36.14-26.72,40.38-62.77,69.6-106.92,89-6.34,2.79-12.53,6.14-19.47,7.43l-.02-.27c-.31-.24-.62-.47-.92-.71.92-4.69.51-9.44.51-14.16,1.1-10.3.43-20.62-1.09-30.75-1.26-8.42-5.19-16.03-11.86-21.82-.48-.53-.97-1.05-1.45-1.58-.32-.38-.65-.76-.97-1.14-1.57-2.41-3.62-4.34-6.01-5.91l-1.08-.98c-1.58-1.46-3.09-3.03-4.76-4.38-15.06-12.14-31.6-22.05-48.9-30.5-49.15-24.03-101.33-36.85-155.78-40.83-20.28-1.48-40.59-1.49-60.9-1.22-10.27.13-20.57.13-30.73,2.08-1.01.07-2.03.13-3.04.2-.95.02-1.9.05-2.85.07-7.96-.56-15.65.45-23.42,2.49-8.55,2.24-17.48,2.98-26.14,4.84-30.42,6.54-59.92,16.03-87.95,29.55-11.13,5.37-23.9,8.74-30.88,20.55-5.21,8.82-11.52,17.17-15.42,26.53-6.23,14.94-14.1,28.23-26.06,39.39-4.59,4.28-8.69,9.98-9.88,16.88-.71,4.11.84,8.23-.34,12.29-4.82-1.97-9.64-3.94-14.46-5.93-53.52-22.09-94.59-58.35-122.85-108.82-10.92-19.5-19.32-40.17-24.4-62.05.71-2.61,2.89-4,4.77-5.59,6.5-5.49,12.42-11.54,17.98-17.96,23.3-26.93,38.84-58.15,50.56-91.49,6.99-19.91,11.18-40.5,14.98-61.18,1.72.78,1.23,2.59,1.79,3.9,1.8,4.23,2.45,8.61,6.9,11.93,2.85,2.13,6.62,2.28,8.73,5.02,2.24,2.92,5.13,5.02,8.43,5.93,7.21,1.99,14.05,5.08,21.27,7.15,6.63,1.9,14.35,2.65,20.08,7.65.96.84,2.35,1.16,3.49,1.8,10,5.67,21.46,7.35,32.02,11.64,7.97,3.24,16.45,6,25.21,7.32,5.71.86,11.48,2.95,16.55,5.02,7.36,3,15.16,4.34,22.4,7.44,1.49.64,3.27,1.16,4.83.98,8.73-1.03,17.16,1.41,25.4,3.1,16.1,3.28,32.48,3.71,48.58,6.41,5.03.84,10.28-1,14.96,1.19,2.37,1.11,4.53,1.72,7.06,1.74,3.14.03,6.34.49,9.39.48,7.28,0,14,3.47,21.02,3.28,10.11-.27,19.64,2.83,29.56,3.64,13.79,1.11,27.67,2.44,41.17,5.69,5.56,1.34,11.17.49,16.76,1.89,14.58,3.66,29.1,7.5,44.14,9.31,6.55.79,13.53.06,19.77,2.89,6.57,2.97,13.69,3.85,20.52,5.77,12.7,3.55,25.88,5.66,38.09,10.63,10.25,4.17,21.12,5.35,31.63,8.05,8.79,2.26,17.39,5.21,26.26,7.12,7.66,1.65,14.41,5.78,22.01,7.64,9.72,2.38,18.81,6.75,28.65,8.96,6.98,1.57,13.48,5.07,20.71,6.14,6.93,1.03,13.32,3.85,19.92,6.09,11.07,3.75,22.46,6.65,33.84,9.36,11.71,2.8,23.51,5.19,34.94,9.09,5.32,1.82,10.69,4.37,16.15,4.68,7.79.44,15.61-1.79,23.53-1.35,5.34.29,10.14-1.15,14.41-4.38Z"/><path class="cls-5" d="m206.46,134.98s.02.07.02.1c-.03,0-.05-.01-.08-.01l.06-.11v.02Z"/><path class="cls-5" d="m823.34,521.18c-1.08,1.09-.72,2.49-.79,3.79-.16,2.63-1.68,3.54-4.05,2.98-8.33-1.98-16.95-2.88-25.08-5.24-12.52-3.65-24.89-7.76-37.75-9.99-11.76-2.05-22.66-7.21-34.43-9.23-9.82-1.69-18.85-6.27-28.6-8.23-7.92-1.59-15.81-3.67-23.38-6.11-21.92-7.06-43.85-14.07-65.83-20.98-4.11-1.29-9.41-1.58-10.9-7.19,1.92-4.25,7.2-5.45,8.96-9.84,1.34-1.43,2.68-2.85,4.01-4.28,3.71-1.49,5.86-4.57,7.94-7.73.35-.41.69-.81,1.04-1.21,3.03-2.37,5.56-5.15,7.05-8.76,1.68-2.33,3.36-4.66,5.04-6.99.71-.62,2.1-.56,1.99-2v-.02c1.53-.93,2.5-2.26,2.87-4.02.4-.62.8-1.24,1.2-1.85.53-.39,1-.82,1.39-1.3.27-.32.5-.66.69-1.02.29-.55.49-1.15.6-1.81h.01c.29-.17.42-.4.39-.73.26-.41.53-.82.79-1.22.27-.1.38-.28.32-.57,1.67-1.32,2.61-3.08,3.1-5.12v-.09c.76-.96,1.79-1.75,1.78-3.14.82-.41,1.11-1.12,1.12-1.99.31-.62.62-1.23.92-1.85.83-.46,1.13-1.2,1.11-2.11,5.34-8.77,9.22-18.16,11.92-28.05.24-.72.48-1.43.72-2.15.47-1.04,1.05-2.04,1.4-3.11,5.41-16.6,8-33.75,9.3-51.07.72-9.53,1.13-19.16-.79-28.67-.02-.73-.05-1.45-.07-2.18.4-5.51-.9-10.86-1.87-16.19-1.62-8.92-3.45-17.79-6.11-26.42-.53-1.73-1.1-3.45-1.7-5.16-1.21-3.41-2.57-6.78-4.12-10.09-.35-.7-.69-1.4-1.04-2.1.15-.84,0-1.54-.85-1.94l-.04-.09c.12-.34.05-.63-.23-.87.12-.9-.22-1.58-.94-2.09-3.74-10.78-9.06-20.72-15.82-29.89l-.09-.12c-4.11-7.95-9.43-15.02-15.64-21.44-.44-.52-.88-1.05-1.33-1.57-3.3-4.53-6.85-8.81-10.77-12.75-1.31-1.31-2.65-2.58-4.04-3.81-1.85-1.64-3.78-3.21-5.81-4.68l-.08-.06c-5.53-6.26-12.1-11.23-19.24-15.51-.1-.3-.3-.44-.62-.42-4.23-4.02-9.09-7.08-14.39-9.46-.19-.31-.47-.46-.83-.43-5.1-4.12-10.86-6.96-17.11-8.85l-.08-.06c-3.53-2.78-7.3-4.96-11.98-4.96-.9-.62-1.73-1.48-3-1-.41-1.78-1.98-2.08-3.35-2.59-21.5-8.01-43.71-12.8-66.6-13.96-30.51-1.55-60.16,3.03-88.81,13.73-10.44,3.9-20.71,8.2-30.28,13.99-1.87.11-3.26,1.06-4.39,2.48-.27.04-.49.17-.66.39-3.04.99-6.45,1.41-7.93,4.92l-.08.07c-1.13-.02-1.86.57-2.34,1.54-.28.05-.51.19-.69.42-3.49,1.59-6.71,3.55-9.2,6.54l-.16.13c-1.93.53-3.5,1.54-4.46,3.37l-.09.07c-1.16.03-1.86.64-2.19,1.73-.58.47-1.16.94-1.74,1.41-1.06.13-1.77.69-2.11,1.71-.35.33-.71.65-1.06.98-2.64.9-4.25,2.98-5.85,5.08l-.07.06c-.32.3-.65.6-.97.9-.36.34-.72.67-1.08,1.01-3.36,1.95-6.11,4.5-7.91,8l-.06.07c-.3.32-.6.63-.9.94-1.62,1.13-2.97,2.5-4,4.19-2.65,2.3-5.87,4.11-6.76,7.92-.27.17-.44.41-.51.72-3.16,1.4-4.94,3.89-5.62,7.22-.24.18-.38.41-.43.7-1.33.48-1.87,1.53-2.07,2.84,0,0-.13.16-.13.16-2.45,2.35-4.58,4.92-5.55,8.26v.02c-2.27,2.3-4.15,4.83-4.93,8.04l-.02.03c-1.98,1.45-2.87,3.5-3.21,5.85-.21.15-.31.35-.31.61-2.28,2.43-3.62,5.33-4.39,8.53-.2.2-.3.43-.29.71-4.57,7.56-7.87,15.64-9.69,24.3-.32,1-.65,1.99-.97,2.98-.49.85-1.2,1.63-1.45,2.54-4.59,16.56-7.7,33.34-8.72,50.55-.59,10,.87,19.95-.12,29.91-4.19-.53-7.36-2.57-9.89-6.01-3.71-5.05-7.37-10.22-11.68-14.74-4.28-4.49-7.07-10.38-12.76-13.58-.8-.45-1.31-2.02-1.36-3.11-.12-2.63-1.23-4.71-2.65-6.84-5.24-7.82-7.89-16.8-9.24-25.85-1.28-8.59-4.97-16.95-3.33-25.93.11-.59-.18-1.33-.47-1.91-3.2-6.35-1.28-13.11.41-18.91,2.6-8.96,4.83-18.2,9.33-26.63,4.96-9.28,9.59-18.73,14.67-27.95,1.95-3.55,6.9-5.58,6-10.67,2.48.32,4.1-.42,4.07-3.28,8.41-6.84,17.76-12.3,27.09-17.67,28.79-16.53,58.87-30.17,90.89-39.28,17.11-4.87,34.47-8.63,52.13-10.5,8.74-.92,17.64-1.43,26.31-2.53,21.12-2.7,42.25-3.75,63.36-1.89,34.7,3.05,69.27,7.26,102.56,18.37,14.71,4.91,29.08,10.69,43.27,17,15.1,6.72,29.58,14.55,43.82,22.87,13.94,8.15,27.03,17.58,40.2,26.9,13.96,9.88,26.37,21.59,38.91,33.05,12.79,11.7,24.28,24.78,35.36,38.2,11.86,14.38,22.75,29.45,33.18,44.87-2.96,10.22-6.4,20.32-7.43,31-.13.69-.25,1.38-.38,2.06-3.44,14.46-5.81,29.05-5.67,43.98-.64,1.98-.47,3.99-.33,6.01-1.49,15.61-1.6,31.23-.06,46.86.07,1.35.14,2.7.21,4.05.64,19.27,3.27,38.26,7.86,56.98.15.66.31,1.31.46,1.97.75,5.37,1.81,10.66,3.96,15.68.13.47.26.93.39,1.4.72,5.67,2.39,11.06,4.81,16.22-.07.31,0,.57.22.79-.16.91-.07,1.73.74,2.33-.08.27,0,.5.24.66-.13.88-.03,1.69.79,2.25-.08.3,0,.55.24.76.18.53.36,1.07.53,1.61.16.46.32.92.48,1.38.12,2.11.78,4.02,2.03,5.73l.06.18c.43,2.34,1.07,4.58,2.6,6.47h0c.34.9.67,1.79,1.01,2.68-.01.91.2,1.74.99,2.31-.07.28.02.49.27.63.06,1.6.55,3.02,1.79,4.11-.03.64-.06,1.26-.1,1.89Z"/><path class="cls-6" d="m592.54,460.98c1.48,5.61,6.79,5.9,10.9,7.19,21.97,6.9,43.91,13.91,65.83,20.98,7.57,2.44,15.46,4.52,23.38,6.11,9.74,1.96,18.78,6.54,28.6,8.23,11.77,2.02,22.67,7.18,34.43,9.23,12.87,2.24,25.24,6.35,37.75,9.99,8.14,2.37,16.76,3.26,25.08,5.24,2.37.56,3.89-.34,4.05-2.98.08-1.3-.28-2.7.8-3.79,10.68,21.63,21.53,43.16,38.27,61,6.4,9.65,14.6,17.6,23.5,24.9-1.93,7.04-3.86,14.07-5.79,21.11-4.26,3.23-9.06,4.68-14.41,4.38-7.91-.44-15.74,1.8-23.53,1.35-5.46-.31-10.83-2.86-16.15-4.68-11.43-3.9-23.23-6.29-34.94-9.09-11.38-2.72-22.77-5.62-33.84-9.36-6.6-2.23-12.99-5.06-19.92-6.09-7.22-1.07-13.73-4.56-20.71-6.14-9.84-2.22-18.93-6.59-28.65-8.96-7.6-1.86-14.35-6-22.01-7.64-8.87-1.9-17.47-4.86-26.26-7.12-10.51-2.71-21.38-3.88-31.63-8.05-12.22-4.97-25.39-7.08-38.09-10.63-6.84-1.91-13.96-2.79-20.52-5.77-6.25-2.83-13.22-2.1-19.77-2.89-15.05-1.81-29.57-5.65-44.14-9.31-5.59-1.4-11.2-.55-16.76-1.89-13.51-3.25-27.38-4.57-41.17-5.69-9.92-.8-19.45-3.91-29.56-3.64-7.02.19-13.74-3.28-21.02-3.28-3.05,0-6.26-.45-9.39-.48-2.54-.03-4.7-.63-7.06-1.74-4.68-2.2-9.94-.35-14.96-1.19-16.1-2.69-32.48-3.13-48.58-6.41-8.24-1.68-16.67-4.13-25.4-3.1-1.56.18-3.34-.34-4.83-.98-7.24-3.11-15.04-4.44-22.4-7.44-5.07-2.07-10.84-4.15-16.55-5.02-8.76-1.32-17.23-4.09-25.21-7.32-10.56-4.29-22.02-5.97-32.02-11.64-1.14-.65-2.53-.97-3.49-1.8-5.73-5-13.45-5.75-20.08-7.65-7.22-2.07-14.06-5.16-21.27-7.15-3.3-.91-6.19-3.01-8.43-5.93-2.1-2.74-5.88-2.89-8.73-5.02-4.44-3.32-5.1-7.71-6.9-11.93-.56-1.32-.07-3.12-1.78-3.9,1.41-13.85,3.31-27.66,4.12-41.54,2.16-36.82-.98-73.28-8.94-109.29-1.72-7.8-2.6-15.92-6.88-22.99,4.63-8.98,11.13-16.67,17.2-24.63,10.73-14.08,22.16-27.57,34.18-40.6,20.14-21.84,41.88-41.89,65.41-60.02.62-.47,1.46-.65,2.2-.97,1,5.18-4.01,7.21-5.98,10.79-5.08,9.23-9.71,18.67-14.66,27.95-4.5,8.43-6.73,17.67-9.34,26.64-1.68,5.8-3.6,12.55-.4,18.91.29.58.58,1.32.47,1.91-1.65,8.98,2.04,17.34,3.33,25.93,1.35,9.04,4,18.03,9.24,25.85,1.43,2.13,2.54,4.2,2.65,6.84.05,1.08.56,2.65,1.36,3.11,5.69,3.2,8.48,9.09,12.76,13.58,4.31,4.52,7.97,9.69,11.68,14.74,2.53,3.44,5.69,5.48,9.88,6.01.67,2.89,1.56,5.75,1.97,8.68,5.75,40.69,21.9,76.73,48.25,108.24,12.43,14.87,26.52,27.95,42.55,38.83,22.74,15.42,47.1,27.22,74.06,33.58,35.12,8.28,70.16,8.81,105.28.52,12.57-2.97,25.02-6.35,36.53-12.44.25.04.43-.05.55-.26,3.83-.8,7.37-2.22,10.43-4.71.25,0,.44-.11.57-.33,1.66-.04,3.04-.64,4.02-2.03.33,0,.62-.13.85-.37,2.48-.42,4.52-1.63,6.22-3.45,0,0,.07-.04.07-.04.43-.23.86-.46,1.28-.69.48-.28.95-.56,1.43-.83,1.11.1,1.83-.41,2.26-1.41l.05-.04c1.39-.08,2.45-.7,3.15-1.92.27-.03.48-.16.62-.39,1.8-.32,3.27-1.1,4.01-2.89,6.63-5.25,13.62-9.99,20.92-14.27Z"/><path class="cls-4" d="m707.72,718.09c.48.53.97,1.05,1.45,1.58-.92,2.3.45,4.18,1.23,6.11,1.24,3.05,3.25,5.88,3.97,9.03,2.24,9.77,4.01,19.64,6.03,29.46.55,2.66-.95,5.77,1.73,7.97,0,4.73.41,9.47-.5,14.16.02.61.32.85.92.71l.02.27c-3.12,3.91-1.34,8.68-2.25,12.99-2.22,10.47-5.14,20.72-8.17,30.99-2.8,9.46-6.87,18.11-11.12,26.82-1.1.27-1.47,1.02-1.4,2.07,0,0,.05-.07.05-.07-5.56,4.41-10.87,9.18-16.74,13.12-6.33,4.24-13.6,6.8-20.71,9.55-13.95,5.4-28.37,8.76-43.22,10.29-7.24.74-14.56,1.32-21.68,2.5-11.48,1.9-23.05,2.94-34.55,3.3-32.2.99-64.3-.4-96.36-4.46-15.3-1.94-30.4-4.63-45.39-7.84-20.55-4.4-40.86-9.91-61.28-14.92-16.14-3.96-31.48-10.46-47.39-15.1-18.46-5.39-32.89-17.25-46.33-29.96-10.98-10.38-18.77-23.35-23.85-37.98-4.36-12.56-5.53-24.39,3.07-35.36,4.61-5.88,10.3-10.86,16.46-15.16,15.59-10.89,31.21-21.72,46.86-32.5,2.18-1.5,4.51-2.94,6.98-3.81,3.57-1.26,7.66-1.61,9.66,2.31,1.27,2.47,3.09,3.76,5.09,5.17-.28,4.59-.55,9.18-.83,13.77-.11.11-.33.24-.32.34.02.28.14.56.23.84-.22,4.9-.43,9.8-.65,14.71-.49,6.12-.46,12.24-.03,18.36.29,5.65.46,11.31.9,16.95.89,11.45,1.61,22.93,5.68,33.85,1.96,5.26,4.78,9.92,9.49,13.15,8.08,5.55,18.32,2.71,22.61-7.2,3.53-8.17,3.59-17.37,5.14-26.11,1.22-6.84,1.1-13.91,1.58-20.88,2.41,3.73,1.96,8.04,2.51,12.17.91,6.84-.24,14.09,3.03,20.46,2.91,5.68,3.74,11.82,5.3,17.82.82,3.14,2.87,5.25,5.97,6.86,14.94,7.75,30.47,13.74,46.78,18.01,18.26,4.78,36.59,8.97,55.26,11.85,13.08,2.01,26.17,3.74,39.34,5.11,15.3,1.59,30.41,4.86,45.96,3.86,6.97-.45,13.99-.07,20.99-.09,1.33,0,2.7.11,3.99-.13,13.84-2.56,27.45-5.84,40.71-10.74,16.22-5.99,32.03-12.59,45.93-23.2,9.38-7.16,17.29-15.42,22.31-26.19,1.89-4.06,3.34-8.22,3.47-12.88.23-8.08-3.3-14.74-7.32-21.23-6.28-10.13-13.24-19.53-23.55-26.28-6.23-4.08-12.76-7.78-18.67-12.31-9.11-6.98-19.01-12.8-29.12-17.97-8.45-4.31-17.49-7.64-26.67-10.65-8.35-2.73-16.54-5.35-25.25-6.52-10.8-1.45-18.78,5.47-18.61,16.38.03,2.28.63,4.67-.61,6.86-.15-1.48-.3-2.96-.44-4.44-1.01-10.74-1.59-21.57-6.49-31.49-3.72-7.52-9.48-11.9-18.2-11.27-8.17.59-12.76,5.81-15.48,12.9-2.83,7.36-3.7,15.14-3.92,22.96-.36,12.44-.58,24.89-.87,37.33-1.25-1.62-.78-3.51-.78-5.3-.03-7.48-.25-14.97.1-22.44.37-7.88-3.77-12.95-9.39-17.52-6.7-5.45-14.88-3.97-22.42-4.65-9.53-.86-18.88,2.36-28.31,3.63-16.5,2.22-33.13,3.46-49.58,6.1-12.54,2.01-24.96,4.03-35.32,12.21-.09-2.98-.02-5.97-.3-8.93-.97-10.52-1.15-21.27-7.75-30.37-.06-.85-.37-1.52-1.31-1.69h-.04c.45-6.3-3.17-11.09-9.95-13.18-4.6-1.41-4.83-2.34-1.43-5.86.81-.83,1.54-1.87,2.52-2.38,11.02-5.64,21.01-13.5,33.59-15.81,1.49-.27,2.32-1.17,2.61-2.62.95-.02,1.9-.05,2.85-.07,1.08.98,2.1,1.03,3.04-.2,10.16-1.95,20.46-1.94,30.73-2.08,20.31-.27,40.62-.26,60.9,1.22,54.45,3.98,106.63,16.8,155.78,40.83,17.3,8.46,33.84,18.36,48.9,30.5,1.68,1.35,3.18,2.91,4.76,4.38.36.33.72.65,1.08.98,2.4,1.57,4.44,3.49,6.01,5.91,0,.65.34,1.01.97,1.13Z"/><path class="cls-9" d="m392.7,635.49c-.29,1.45-1.12,2.34-2.61,2.62-12.59,2.31-22.57,10.17-33.59,15.81-.99.51-1.72,1.54-2.52,2.38-3.4,3.52-3.17,4.44,1.43,5.86,6.78,2.09,10.4,6.88,9.95,13.19-14.59-8.18-25.28-3.93-30.74,12.07-2.43,7.13-3.08,14.56-4.31,21.9-2-1.41-3.82-2.69-5.09-5.17-2.01-3.92-6.09-3.56-9.66-2.31-2.47.87-4.8,2.31-6.98,3.81-15.66,10.78-31.28,21.62-46.86,32.5-6.16,4.3-11.85,9.28-16.46,15.16-8.6,10.97-7.43,22.8-3.07,35.36,5.08,14.63,12.87,27.6,23.85,37.98,13.45,12.72,27.87,24.58,46.33,29.96,15.92,4.64,31.25,11.15,47.39,15.1,20.42,5,40.73,10.52,61.28,14.92,14.99,3.21,30.09,5.9,45.39,7.84,32.06,4.06,64.16,5.45,96.36,4.46,11.5-.35,23.07-1.4,34.55-3.3,7.12-1.18,14.44-1.75,21.68-2.5,14.86-1.53,29.28-4.88,43.22-10.29,7.11-2.76,14.38-5.31,20.71-9.55,5.87-3.94,11.18-8.71,16.74-13.12-1.53,7.44-6.96,12.63-11.1,18.46-17.05,24.04-41.76,37.15-68.84,46.08-24.42,8.05-49.49,13.82-74.98,17.44-17.26,2.45-34.6,4.07-52.02,5.01-39.15,2.12-78.25,1.58-117.27-2.09-16.63-1.57-33.09-4.2-49.53-7.35-15.87-3.04-31.49-6.85-46.87-11.59-13.83-4.26-27.15-9.89-39.59-17.44-26.57-16.13-43.6-39.66-53.8-68.66-5.69-16.18-10.53-32.53-12.29-49.67-.08-.8-.5-1.57-.77-2.35,1.18-4.06-.37-8.18.34-12.29,1.19-6.89,5.29-12.59,9.88-16.88,11.96-11.17,19.83-24.46,26.06-39.39,3.9-9.36,10.21-17.72,15.42-26.53,6.98-11.81,19.75-15.18,30.88-20.55,28.03-13.52,57.53-23.02,87.95-29.55,8.66-1.86,17.59-2.6,26.14-4.84,7.77-2.04,15.46-3.05,23.42-2.49Z"/><path class="cls-1" d="m87.49,261.17c4.28,7.06,5.16,15.19,6.88,22.99,7.96,36.01,11.1,72.47,8.94,109.29-.82,13.88-2.72,27.7-4.12,41.54-3.8,20.69-7.99,41.28-14.98,61.18-11.71,33.34-27.26,64.56-50.56,91.49-5.55,6.42-11.48,12.47-17.98,17.96-1.88,1.59-4.06,2.98-4.77,5.59C1.04,574.88-1.37,537.78.67,500.41c1.61-29.46,7.53-58.26,15.44-86.7,8.45-30.38,18.8-60.04,32.86-88.26,7.9-15.87,16.35-31.49,26.57-46.12,4.13-5.91,7.26-12.56,11.95-18.16Z"/><path class="cls-3" d="m861.61,582.17c-16.73-17.84-27.58-39.36-38.27-61,.03-.63.06-1.26.09-1.9,3.22,6.04,7.82,8.61,14.62,5.97.87-.34,1.99,0,2.98-.08,6.31-.55,11.71-6.69,12.69-12.87,1-6.3-.16-12.74,1.16-18.82,1.87-8.6,1.67-17.26.4-25.58-2.72-17.8-3.05-35.86-6.6-53.56-1.71-8.56-1.86-17.43-3.69-25.95-2.19-10.17-6.43-19.96-8-30.18-2.18-14.16-5.99-27.8-10.73-41.17-4.54-12.82-11.43-24.57-18.78-36.01-1.36-2.12-1.81-1.58-3.31.35-2.58,3.31-.25,8.16-3.98,10.82,1.03-10.68,4.47-20.79,7.43-31.01,14.78,24.19,30.5,47.82,43.09,73.3,12.55,25.41,21.88,52.07,29.3,79.29,4.5,16.53,9.36,33.12,11.28,50.26.86,7.71,1.11,15.47,2.21,23.18,1.14,8.01,1.48,16.14,2.05,24.22.27,3.81.18,7.64-.87,11.38-2.55.86-2.65,3.22-3.06,5.25-2.48,12.27-4.13,24.77-9.29,36.33-4.07,9.11-10.2,16.07-20.72,17.78Z"/><path class="cls-1" d="m861.61,582.17c10.52-1.71,16.65-8.67,20.72-17.78,5.16-11.56,6.81-24.06,9.29-36.33.41-2.03.52-4.39,3.06-5.25.29,16.39.54,32.86-2.38,49.02-2.13,11.78-2.39,23.99-7.19,35.23-8.9-7.29-17.1-15.24-23.5-24.9Z"/><path class="cls-6" d="m210.55,131.8c.03,2.88-1.63,3.62-4.15,3.26.99-1.59,2.21-2.88,4.15-3.26Z"/><path class="cls-9" d="m699.62,860.25c-.06-1.05.31-1.81,1.4-2.07-.44.71-.27,1.83-1.4,2.07Z"/><path class="cls-9" d="m722.12,772.24c-2.67-2.2-1.18-5.31-1.73-7.97-2.02-9.82-3.78-19.7-6.03-29.46-.72-3.15-2.72-5.98-3.97-9.03-.79-1.93-2.15-3.81-1.23-6.11,6.68,5.79,10.61,13.4,11.87,21.82,1.52,10.13,2.19,20.45,1.09,30.75Z"/><path class="cls-9" d="m398.59,635.22c-.94,1.23-1.96,1.18-3.04.2,1.01-.07,2.03-.13,3.04-.2Z"/><path class="cls-9" d="m707.72,718.09c-.63-.12-.96-.49-.97-1.13.32.38.65.76.97,1.13Z"/><path class="cls-9" d="m722.54,787.11c-.6.15-.9-.1-.92-.71.31.24.61.47.92.71Z"/><path class="cls-9" d="m700.74,711.05c-.36-.33-.72-.65-1.08-.98.36.33.72.65,1.08.98Z"/><path class="cls-3" d="m601.49,451.14c-1.76,4.39-7.04,5.59-8.96,9.84-7.29,4.28-14.28,9.02-20.91,14.27-2.13-.14-3.82.33-4.01,2.89-.14.23-.34.37-.62.39-1.69-.42-2.82.09-3.14,1.92l-.05.03c-1.29-.38-2.06.07-2.26,1.41-.48.28-.96.56-1.43.83-.7-.27-1.13-.03-1.29.7l-.07.04c-3.04-.59-4.8,1.13-6.22,3.45-.24.24-.52.36-.85.37-1.83-.29-3.36.01-4.03,2.03-.12.22-.31.33-.57.33-4.09.2-7.55,1.82-10.43,4.71-.12.22-.3.31-.55.27-3.52-.89-6.79,2.8-10.09,1.03-5.42-2.9-11.46-2.94-17.16-4.32-18.31-4.44-36.75-8.39-55.22-12.15-4.94-1-8.18-5.37-12.98-5.89-10.93-1.17-21.15-4.98-31.65-7.79-5.17-1.38-9.25-5.28-14.68-5.93-8.13-.98-14.91-5.06-21.67-9.31-10.39-6.53-21.86-11.14-32.09-18.03-14.72-9.92-28.14-21.43-41.46-33.08-3.77-3.29-8.31-5.43-12.01-8.85-5.84-5.37-8.88-12.75-14.03-18.61-1.84-2.1-4.61-3.17-5.77-6.03-3.26-8.04-6.83-15.72-12.36-22.8-3.94-5.05-8.02-10.91-9.44-17.77-.84-4.08-3.07-7.61-4.91-11.32-2.38-4.8-5.84-9.46-4.97-15.34.56-3.83-.11-7.14-1.83-10.78-2.45-5.18-4.25-10.93-3.08-16.86,2.03-10.37,3.06-20.96,6.5-31.05.57-1.68,2.39-3.51.54-5.53.32-.99.65-1.98.97-2.98,3.75-3.36,3.46-8.58,5.72-12.7,1.91-3.5,4.19-7.22,3.97-11.6-.01-.28.09-.51.29-.71,3.47-1.81,4.5-4.88,4.39-8.53,0-.26.1-.46.31-.61,2.58-1.12,3.09-3.38,3.21-5.85l.02-.03c2.95-1.89,5.36-4.1,4.92-8.04v-.02c3.79-1.45,5.36-4.4,5.56-8.26,0,0,.13-.17.13-.16,2.69.51,2.25-1.26,2.07-2.84.05-.29.19-.52.43-.7,3.08-1.46,4.91-3.91,5.62-7.22.07-.31.24-.55.51-.72,3.27-1.77,6.19-3.84,6.76-7.92,1.03-1.69,2.38-3.06,4-4.19.3-.31.6-.62.9-.94l.06-.07c3.82-1.5,6.52-4.11,7.91-8,.36-.34.72-.67,1.08-1.01.32-.3.65-.6.97-.9l.07-.06c3.4-.03,5.19-1.9,5.85-5.08.35-.33.71-.65,1.06-.98,1.24.1,1.97-.44,2.11-1.71.58-.47,1.16-.94,1.74-1.41,1.36.21,2.09-.36,2.19-1.73l.09-.07c2.31-.04,4.14-.7,4.46-3.37l.16-.13c4.12-.69,7.35-2.65,9.2-6.54.18-.23.41-.37.69-.42,1.45.5,2.22-.03,2.34-1.54l.08-.07c3.13-.86,6.53-1.29,7.93-4.92.17-.22.39-.35.66-.39,2.25.56,3.95.15,4.39-2.48,9.57-5.79,19.84-10.09,30.28-13.99,28.65-10.7,58.3-15.28,88.81-13.73,22.89,1.16,45.1,5.95,66.6,13.96,1.37.51,2.94.81,3.35,2.59-8.07-1.58-15.33-5.77-23.47-7.18-10.76-1.86-21.39-7.03-32.38-3.49-5.5,1.77-10.82,5.36-14.79,9.99-2.1,2.45-5.37,4.03-6.06,7.68-.12.64-1.1,1.5-1.78,1.6-6.22.86-9.95,6.51-15.78,8.08-4.31,1.15-7.28,4.45-10.83,6.83-.55.37-1.45.82-1.46,1.26-.25,7-5.5,5.51-9.4,5.16-6.05-.54-10.22,4.83-16.13,4.54-1.1-.05-.63,2.03-1.04,3.05-1.78,4.46-4.11,8.02-9.7,8.65-6.28.72-10.54,5.29-13.19,10.43-2.12,4.13-4.88,8.18-7.43,11.58-5.71,7.63-4.73,15.28-4.34,23.53.19,4.28,3.11,8.71-.8,13.16-2,2.28,1.59,12.36,4.23,14.58,2.81,2.36,4.9,5.52,4.21,9.11-1.4,7.2,3.06,12.01,5.71,17.79,3.28,7.13,8.25,13.06,11.88,19.85,1.21,2.26,1.91,4.76.86,7.65-1.28,3.51-.33,7.34,2.18,9.8,5.01,4.88,7.41,11.36,10.94,17.06,2.75,4.43,7.29,6.07,10.34,9.7,1.33,1.59,3.08,2.78,1.29,5.01-1.6,2-.47,3.33,1.32,3.72,6.72,1.49,8.38,7.5,10.08,12.47,2.91,8.5,10.13,11.97,16.64,16.14,4.05,2.59,7.51,5.64,11.19,8.51,4.95,3.85,8.84,9.1,15.68,11.24,5.35,1.67,11.54,3.68,15.48,9.06,3.04,4.16,8.44,5.13,12.97,7.04,7.99,3.37,14.89,8.52,22.35,12.75,1.58.9,2.97,2.32,4.65,2.81,6.89,2.02,11.86,7.15,17.8,10.68,4.94,2.95,10.24,4.98,15.96,5.58,4.75.5,14.85,8.72,15.76,13.46.35,1.84,1.09,3.39,2.73,3.83,3.12.86,4.71,3.59,7.16,5.23.81.53,1.48,1.88,2.18,1.85,5.98-.22,4.95,4.01,4.97,7.56.03,7.4,3.25,9.44,9.49,6.06.68-.37,1.61-.29,2.42-.41Z"/><path class="cls-1" d="m237.74,234.21c1.85,2.02.03,3.85-.54,5.52-3.43,10.1-4.47,20.68-6.5,31.05-1.16,5.93.63,11.68,3.09,16.86,1.72,3.64,2.39,6.95,1.82,10.78-.87,5.88,2.6,10.54,4.97,15.33,1.84,3.71,4.08,7.24,4.92,11.32,1.41,6.87,5.5,12.72,9.44,17.77,5.53,7.08,9.09,14.77,12.36,22.81,1.16,2.86,3.93,3.92,5.77,6.02,5.15,5.87,8.19,13.24,14.03,18.62,3.71,3.42,8.25,5.55,12.01,8.84,13.32,11.65,26.74,23.16,41.47,33.08,10.23,6.89,21.69,11.5,32.09,18.03,6.77,4.25,13.54,8.33,21.67,9.31,5.43.65,9.51,4.55,14.68,5.93,10.5,2.81,20.72,6.62,31.65,7.79,4.8.52,8.04,4.89,12.98,5.89,18.47,3.76,36.91,7.71,55.22,12.15,5.7,1.38,11.75,1.42,17.16,4.32,3.3,1.77,6.57-1.93,10.09-1.04-11.52,6.09-23.97,9.48-36.53,12.44-35.12,8.29-70.16,7.76-105.28-.52-26.96-6.36-51.32-18.16-74.06-33.58-16.03-10.87-30.12-23.96-42.55-38.83-26.35-31.51-42.5-67.54-48.25-108.24-.41-2.93-1.3-5.79-1.97-8.68.99-9.96-.47-19.91.12-29.91,1.02-17.21,4.13-33.99,8.72-50.55.25-.91.96-1.7,1.45-2.54Z"/><path class="cls-3" d="m668.19,308.95c-1.3,17.32-3.89,34.47-9.3,51.07-.35,1.07-.93,2.07-1.4,3.11-1.68-3.86.29-7.53,1.31-10.88,6.81-22.3,8.55-45.1,7.82-68.22-.04-1.28-.39-2.69.78-3.75,1.92,9.51,1.51,19.14.79,28.67Z"/><path class="cls-3" d="m667.33,278.1c-2.14-2.58-2.37-5.8-2.66-8.87-1-10.61-3.51-20.94-6.32-31.13-1.37-4.95-2.41-10.2-5.13-14.78-.62-1.03-.94-2.17.3-3.08,1.56,3.31,2.92,6.68,4.13,10.09.6,1.71,1.17,3.43,1.7,5.16,2.66,8.63,4.49,17.5,6.11,26.42.97,5.33,2.27,10.68,1.87,16.19Z"/><path class="cls-3" d="m793.97,395.15c3.17,4.09,1.9,9.11,2.36,13.6,1.3,12.67,2.82,25.26,5.8,37.65.47,1.94.98,3.88-.3,5.73-4.59-18.72-7.22-37.71-7.86-56.98Z"/><path class="cls-3" d="m793.82,344.23c1.06,1.1.74,2.49.75,3.78.01,13.11.01,26.22,0,39.33,0,1.29.33,2.69-.79,3.76-1.54-15.62-1.43-31.24.06-46.86Z"/><path class="cls-3" d="m799.82,294.25c1.34,1.61.97,3.62.65,5.28-2.41,12.35-4.54,24.72-5.08,37.32-.02.48-.82.92-1.25,1.38-.14-14.92,2.24-29.52,5.68-43.97Z"/><path class="cls-3" d="m617.55,160.13c-5.9-2.58-8.9-8.4-13.59-12.36-2.79-2.36-6.78-4.29-7.03-8.87,2.03,1.48,3.96,3.04,5.81,4.67,1.39,1.23,2.73,2.5,4.04,3.81,3.92,3.94,7.47,8.22,10.77,12.75Z"/><path class="cls-3" d="m650.43,213.15c-4.97-5.02-6.6-11.9-9.8-17.9-2.09-3.92-6.28-6.89-6.02-11.99,6.76,9.17,12.08,19.11,15.82,29.89Z"/><path class="cls-3" d="m634.52,183.14c-1.93.07-3.27-1.29-3.93-2.63-2.88-5.77-7.33-10.38-11.03-15.52-.68-.94-1.07-2.07-.68-3.29,6.21,6.42,11.53,13.49,15.64,21.44Z"/><path class="cls-3" d="m596.85,138.83c-4.55,1.48-5.66-3.19-8.14-5-4.06-2.97-8.98-5.37-11.1-10.51,7.14,4.28,13.71,9.25,19.24,15.51Z"/><path class="cls-3" d="m656.77,365.28c-2.7,9.89-6.58,19.28-11.92,28.05-.02.02-.03.04-.04.06,0-.01-.01-.03-.01-.04-.46-1.54.13-2.89.82-4.21,3.82-7.27,6.75-14.9,9.17-22.73.3-.96,1.13-1.09,1.98-1.13Z"/><path class="cls-1" d="m248.41,206.92c.21,4.38-2.07,8.1-3.98,11.6-2.26,4.13-1.97,9.34-5.72,12.71,1.82-8.66,5.12-16.74,9.7-24.31Z"/><path class="cls-3" d="m576.99,122.9c-6.43-.66-10.6-4.77-14.39-9.46,5.3,2.38,10.16,5.44,14.39,9.46Z"/><path class="cls-3" d="m561.77,113.01c-6.19-2.02-12.27-4.23-17.11-8.85,6.25,1.89,12.01,4.73,17.11,8.85Z"/><path class="cls-3" d="m806.64,471.17c2.68,5.09,4.37,10.47,4.81,16.22-2.42-5.17-4.09-10.55-4.81-16.22Z"/><path class="cls-3" d="m802.29,454.09c3.21,4.75,3.6,10.21,3.97,15.68-2.15-5.02-3.21-10.31-3.97-15.68Z"/><path class="cls-3" d="m544.58,104.1c-4.64-.1-8.6-1.84-11.98-4.96,4.68,0,8.45,2.18,11.98,4.96Z"/><path class="cls-1" d="m295.5,142.11c-1.4,3.89-4.09,6.5-7.91,8,1.8-3.5,4.55-6.05,7.91-8Z"/><path class="cls-3" d="m613.44,439.13c-2.08,3.16-4.23,6.24-7.94,7.73,1.78-3.47,4.24-6.24,7.94-7.73Z"/><path class="cls-3" d="m621.53,429.16c-1.49,3.61-4.02,6.39-7.05,8.76.92-4.07,3.21-7.04,7.05-8.76Z"/><path class="cls-1" d="m324.47,119.12c-1.85,3.89-5.08,5.85-9.2,6.54,2.49-2.99,5.71-4.95,9.2-6.54Z"/><path class="cls-1" d="m282.62,155.32c-.57,4.08-3.49,6.14-6.76,7.91.89-3.8,4.11-5.62,6.76-7.91Z"/><path class="cls-1" d="m267.11,174.88c-.21,3.86-1.77,6.8-5.56,8.26.98-3.34,3.1-5.91,5.56-8.26Z"/><path class="cls-1" d="m275.36,163.96c-.72,3.31-2.55,5.76-5.63,7.22.68-3.34,2.46-5.82,5.63-7.22Z"/><path class="cls-1" d="m335.52,112.17c-1.4,3.64-4.8,4.06-7.93,4.93,1.48-3.51,4.89-3.93,7.93-4.93Z"/><path class="cls-1" d="m261.54,183.15c.44,3.95-1.97,6.16-4.91,8.04.78-3.21,2.65-5.74,4.91-8.04Z"/><path class="cls-1" d="m253.08,197.68c.12,3.66-.91,6.73-4.39,8.53.78-3.2,2.12-6.11,4.39-8.53Z"/><path class="cls-1" d="m303.46,135.06c-.66,3.18-2.45,5.05-5.85,5.08,1.6-2.1,3.21-4.18,5.85-5.08Z"/><path class="cls-3" d="m816.78,503.09c2.77,1.39,2.65,3.94,2.6,6.47-1.53-1.89-2.17-4.14-2.6-6.47Z"/><path class="cls-3" d="m639.92,402.51c-.49,2.04-1.43,3.8-3.1,5.12.48-2.04-.55-4.99,3.1-5.12Z"/><path class="cls-1" d="m256.61,191.22c-.13,2.47-.63,4.74-3.22,5.86.34-2.36,1.23-4.41,3.22-5.86Z"/><path class="cls-1" d="m340.56,109.31c-.44,2.63-2.14,3.04-4.39,2.48,1.13-1.42,2.52-2.37,4.39-2.48Z"/><path class="cls-1" d="m315.12,125.8c-.32,2.67-2.15,3.33-4.46,3.37.95-1.83,2.52-2.84,4.46-3.37Z"/><path class="cls-3" d="m635.32,410.15c-.11.66-.32,1.26-.61,1.81-.19.36-.42.7-.69,1.02-.39.48-.86.91-1.39,1.3-.2-2.09.23-3.77,2.68-4.13h.01Z"/><path class="cls-3" d="m631.43,416.13c-.37,1.76-1.34,3.09-2.86,4.02-.12-2.1.42-3.73,2.86-4.02Z"/><path class="cls-3" d="m814.69,497.17c2.49,1.27,1.8,3.66,2.03,5.74-1.25-1.71-1.91-3.63-2.03-5.74Z"/><path class="cls-3" d="m821.66,515.18c1.8.85,2.12,2.35,1.81,4.13-1.25-1.09-1.75-2.51-1.81-4.13Z"/><path class="cls-1" d="m269.3,171.88c.18,1.58.63,3.34-2.06,2.83.19-1.3.73-2.36,2.06-2.83Z"/><path class="cls-3" d="m641.7,399.28c.01,1.39-1.02,2.18-1.77,3.14-.44-1.63-.53-3.06,1.77-3.14Z"/><path class="cls-3" d="m628.56,420.17c.11,1.44-1.28,1.38-1.99,2-.05-1.37.71-1.94,1.99-2Z"/><path class="cls-1" d="m327.5,117.16c-.12,1.51-.88,2.05-2.33,1.54.48-.97,1.2-1.56,2.33-1.54Z"/><path class="cls-1" d="m310.56,129.23c-.1,1.37-.84,1.94-2.19,1.73.32-1.09,1.03-1.7,2.19-1.73Z"/><path class="cls-1" d="m306.63,132.37c-.14,1.27-.87,1.81-2.11,1.71.34-1.02,1.06-1.58,2.11-1.71Z"/><path class="cls-3" d="m652.49,218.14c-.8-.42-.96-1.12-.85-1.94.85.4,1,1.1.85,1.94Z"/><path class="cls-3" d="m644.85,393.33c.02.91-.28,1.65-1.11,2.11-.16-.96-.04-1.79,1.06-2.09.01-.01.03-.02.05-.02Z"/><path class="cls-3" d="m642.82,397.29c-.01.87-.3,1.58-1.12,1.99-.13-.95.06-1.72,1.12-1.99Z"/><path class="cls-3" d="m820.39,512.23c1.1.44,1.2,1.3.99,2.31-.79-.57-1-1.39-.99-2.31Z"/><path class="cls-3" d="m812.65,491.17c.87.54.98,1.34.79,2.25-.82-.55-.91-1.36-.79-2.25Z"/><path class="cls-3" d="m811.67,488.19c.87.58.95,1.4.74,2.32-.81-.59-.9-1.42-.74-2.32Z"/><path class="cls-1" d="m287.52,150.19c-.3.31-.6.63-.9.94.3-.31.6-.63.9-.94Z"/><path class="cls-3" d="m813.68,494.18c.18.54.36,1.07.53,1.61-.18-.54-.36-1.07-.53-1.61Z"/><path class="cls-8" d="m666.62,284.03c.73,23.12-1.01,45.92-7.82,68.22-1.02,3.35-2.99,7.02-1.31,10.88-.24.72-.48,1.43-.72,2.15-.85.04-1.68.17-1.98,1.13-2.42,7.83-5.35,15.46-9.17,22.73-.69,1.32-1.28,2.67-.82,4.21-1.1.3-1.22,1.13-1.06,2.09-.3.62-.61,1.23-.92,1.85-1.06.27-1.25,1.04-1.12,1.99-2.3.08-2.21,1.51-1.77,3.14v.09c-3.66.13-2.63,3.08-3.11,5.12.06.29-.05.47-.32.57-.26.4-.53.81-.79,1.22.03.33-.1.56-.39.73h-.01c-2.45.36-2.88,2.04-2.68,4.13-.4.61-.8,1.23-1.2,1.85-2.44.29-2.98,1.92-2.86,4.02v.02c-1.29.06-2.05.63-2,2-1.68,2.33-3.36,4.66-5.04,6.99-3.84,1.72-6.13,4.69-7.05,8.76-.35.4-.69.8-1.04,1.21-3.7,1.49-6.16,4.26-7.94,7.73-1.33,1.43-2.67,2.85-4.01,4.28-.81.12-1.74.04-2.42.41-6.24,3.38-9.46,1.34-9.49-6.06-.02-3.55,1.01-7.78-4.97-7.56-.7.03-1.37-1.32-2.18-1.85-2.45-1.64-4.04-4.37-7.16-5.23-1.64-.44-2.38-1.99-2.73-3.83-.91-4.74-11.01-12.96-15.76-13.46-5.72-.6-11.02-2.63-15.96-5.58-5.94-3.53-10.91-8.66-17.8-10.68-1.68-.49-3.07-1.91-4.65-2.81-7.46-4.23-14.36-9.38-22.35-12.75-4.53-1.91-9.93-2.88-12.97-7.04-3.94-5.38-10.13-7.39-15.48-9.06-6.84-2.14-10.73-7.39-15.68-11.24-3.68-2.87-7.14-5.92-11.19-8.51-6.51-4.17-13.73-7.64-16.64-16.14-1.7-4.97-3.36-10.98-10.08-12.47-1.79-.39-2.92-1.72-1.32-3.72,1.79-2.23.04-3.42-1.29-5.01-3.05-3.63-7.59-5.27-10.34-9.7-3.53-5.7-5.93-12.18-10.94-17.06-2.51-2.46-3.46-6.29-2.18-9.8,1.05-2.89.35-5.39-.86-7.65-3.63-6.79-8.6-12.72-11.88-19.85-2.65-5.78-7.11-10.59-5.71-17.79.69-3.59-1.4-6.75-4.21-9.11-2.64-2.22-6.23-12.3-4.23-14.58,3.91-4.45.99-8.88.8-13.16-.39-8.25-1.37-15.9,4.34-23.53,2.55-3.4,5.31-7.45,7.43-11.58,2.65-5.14,6.91-9.71,13.19-10.43,5.59-.63,7.92-4.19,9.7-8.65.41-1.02-.06-3.1,1.04-3.05,5.91.29,10.08-5.08,16.13-4.54,3.9.35,9.15,1.84,9.4-5.16.01-.44.91-.89,1.46-1.26,3.55-2.38,6.52-5.68,10.83-6.83,5.83-1.57,9.56-7.22,15.78-8.08.68-.1,1.66-.96,1.78-1.6.69-3.65,3.96-5.23,6.06-7.68,3.97-4.63,9.29-8.22,14.79-9.99,10.99-3.54,21.62,1.63,32.38,3.49,8.14,1.41,15.4,5.6,23.47,7.18,1.27-.48,2.1.38,3,1,3.38,3.12,7.34,4.86,11.98,4.96l.08.06c4.84,4.62,10.92,6.83,17.11,8.85.36-.03.64.12.83.43,3.79,4.69,7.96,8.8,14.39,9.46.32-.02.52.12.62.42,2.12,5.14,7.04,7.54,11.1,10.51,2.48,1.81,3.59,6.48,8.14,5l.08.06c2.03,1.47,3.96,3.04,5.81,4.68-1.85-1.63-3.78-3.19-5.81-4.67.25,4.58,4.24,6.51,7.03,8.87,4.69,3.96,7.69,9.78,13.59,12.36.45.52.89,1.05,1.33,1.57-.39,1.22,0,2.35.68,3.29,3.7,5.14,8.15,9.75,11.03,15.52.66,1.34,2,2.7,3.93,2.63l.09.12c-.26,5.1,3.93,8.07,6.02,11.99,3.2,6,4.83,12.88,9.8,17.9.72.51,1.06,1.19.94,2.09-.1.1-.29.26-.29.3.15.2.34.38.52.57l.04.09c-.11.82.05,1.52.85,1.94.35.7.69,1.4,1.04,2.1,1.55,3.31,2.91,6.68,4.12,10.09-1.21-3.41-2.57-6.78-4.13-10.09-1.24.91-.92,2.05-.3,3.08,2.72,4.58,3.76,9.83,5.13,14.78,2.81,10.19,5.32,20.52,6.32,31.13.29,3.07.52,6.29,2.66,8.87.02.73.05,1.45.07,2.18-1.17,1.06-.82,2.47-.78,3.75Z"/><path class="cls-3" d="m651.6,216.11c-.18-.19-.37-.37-.52-.57,0-.04.19-.2.29-.3.28.24.35.53.23.87Z"/><path class="cls-1" d="m297.54,140.2c-.33.3-.65.6-.97.9.33-.3.65-.6.97-.9Z"/><path class="cls-1" d="m536.65,494.35c2.88-2.9,6.34-4.51,10.43-4.72-3.06,2.5-6.61,3.92-10.43,4.72Z"/><path class="cls-1" d="m552.53,486.91c1.42-2.32,3.18-4.04,6.22-3.45-1.7,1.82-3.74,3.04-6.22,3.45Z"/><path class="cls-1" d="m567.61,478.13c.18-2.56,1.88-3.02,4.01-2.89-.74,1.79-2.21,2.57-4.01,2.89Z"/><path class="cls-1" d="m547.66,489.31c.66-2.02,2.2-2.32,4.02-2.03-.98,1.39-2.36,1.99-4.02,2.03Z"/><path class="cls-1" d="m563.85,480.44c.33-1.83,1.45-2.34,3.15-1.92-.7,1.22-1.76,1.84-3.15,1.92Z"/><path class="cls-1" d="m561.54,481.89c.21-1.34.98-1.79,2.26-1.41-.43.99-1.15,1.51-2.26,1.41Z"/><path class="cls-1" d="m558.82,483.41c.16-.72.58-.96,1.28-.7-.43.23-.86.46-1.28.7Z"/><path class="cls-2" d="m374.76,716.32c10.36-8.17,22.78-10.19,35.32-12.21,16.45-2.64,33.07-3.88,49.58-6.1,9.42-1.27,18.78-4.49,28.31-3.63,7.54.68,15.72-.8,22.42,4.65,5.62,4.57,9.76,9.64,9.39,17.52-.35,7.47-.14,14.96-.1,22.44,0,1.79-.47,3.68.78,5.3,0,2.6.02,5.2.02,7.8-1.17,2.07-1.27,4.12.09,6.16.04,1.61.07,3.22.11,4.83-1.22,4.15-2.28,8.3.6,12.25.13,2.6.26,5.21.39,7.81-.9.75-.95,1.42.19,1.98.24,1.97.48,3.95.72,5.92.95,7.9,1.99,15.8,5.58,23.05,5.99,12.1,17.57,13.59,26.44,3.46,3.71-4.23,5.7-9.32,7.06-14.66,3.73-14.59,3.91-29.57,4.6-44.48.75-5.46.76-10.93.11-16.4,0-.88,0-1.76-.01-2.64-.03-.47-.06-.95-.09-1.42-.14-6.55-.28-13.09-.42-19.64,1.24-2.19.65-4.58.61-6.86-.17-10.91,7.81-17.83,18.61-16.38,8.71,1.17,16.9,3.78,25.25,6.52,9.17,3,18.21,6.33,26.67,10.65,10.12,5.16,20.01,10.98,29.12,17.97,5.92,4.53,12.44,8.23,18.67,12.31,10.31,6.75,17.27,16.15,23.55,26.28,4.02,6.48,7.55,13.15,7.32,21.23-.13,4.66-1.58,8.82-3.47,12.88-5.02,10.77-12.92,19.04-22.31,26.19-13.9,10.61-29.71,17.2-45.93,23.2-13.26,4.9-26.87,8.17-40.71,10.74-1.29.24-2.66.13-3.99.13-7,.01-14.02-.36-20.99.09-15.54,1.01-30.66-2.26-45.96-3.86-13.17-1.37-26.25-3.1-39.34-5.11-18.67-2.87-37-7.07-55.26-11.85-16.32-4.27-31.84-10.26-46.78-18.01-3.1-1.61-5.16-3.72-5.97-6.86-1.56-6-2.39-12.14-5.3-17.82-3.26-6.37-2.12-13.62-3.03-20.46-.55-4.12-.1-8.43-2.51-12.17.18-7.95.36-15.9.54-23.85,1.59-8.38,1.53-16.78.15-25.18,0-.59-.02-1.18-.03-1.76Z"/><path class="cls-7" d="m374.76,716.32c0,.59.02,1.18.03,1.76-.05,8.39-.1,16.79-.15,25.18-.18,7.95-.36,15.9-.54,23.85-.48,6.97-.36,14.04-1.58,20.88-1.56,8.73-1.61,17.93-5.14,26.11-4.29,9.91-14.53,12.75-22.61,7.2-4.71-3.23-7.53-7.89-9.49-13.15-4.07-10.92-4.79-22.41-5.68-33.85-.44-5.64-.61-11.3-.9-16.96.85-6.12.72-12.24.03-18.36.22-4.9.43-9.8.65-14.71.03-.39.06-.79.1-1.18.28-4.59.55-9.18.83-13.77,1.23-7.34,1.88-14.78,4.31-21.9,5.46-16,16.15-20.25,30.74-12.07,0,0,.04,0,.04,0,.09.83.44,1.46,1.31,1.69,6.6,9.09,6.78,19.84,7.75,30.37.27,2.96.21,5.95.3,8.93Zm-36.17-9.23c-.53,6.23.28,12.43,2.05,18.55,2.77,9.58,11.15,12.03,17.92,5.08,10.63-10.92,9.79-35.6,2.97-45.9-4.54-6.86-13.04-6.39-17.94.3-4.82,6.59-5.44,14.08-5.01,21.97Z"/><path class="cls-7" d="m521.65,783.14c-.13-2.6-.26-5.21-.39-7.82.22-4.1.39-8.2-.6-12.25-.04-1.61-.07-3.22-.11-4.83.36-2.06.44-4.11-.09-6.16,0-2.6-.02-5.2-.02-7.8.28-12.44.51-24.89.87-37.33.22-7.83,1.1-15.6,3.92-22.96,2.72-7.09,7.31-12.31,15.48-12.9,8.72-.63,14.48,3.75,18.2,11.27,4.9,9.93,5.48,20.76,6.49,31.49.14,1.48.29,2.96.44,4.44.14,6.55.28,13.09.42,19.64.03.47.06.95.09,1.42,0,.88,0,1.76.01,2.65-.63,5.46-.82,10.93-.11,16.4-.69,14.92-.88,29.89-4.6,44.48-1.36,5.34-3.35,10.43-7.06,14.66-8.87,10.13-20.46,8.64-26.44-3.46-3.58-7.24-4.63-15.15-5.58-23.05-.24-1.97-.48-3.95-.72-5.92-.06-.66-.13-1.32-.19-1.98Zm8.06-77.31c-1.14,7.19.82,14.15,3.9,20.9,1.97,4.33,7.9,8.85,11.49,8.28,5.08-.8,7.91-4.08,9.69-8.87,3.16-8.51,3.18-17.28,2.55-26.05-.44-6.16-2.68-11.69-6.82-16.71-5.39-6.53-14.6-3.54-17.51,2.74-2.88,6.23-3.94,12.62-3.31,19.7Z"/><path class="cls-9" d="m328.73,738.98c.69,6.12.82,12.24-.03,18.36-.43-6.12-.47-12.24.03-18.36Z"/><path class="cls-9" d="m366.71,677.02c-.86-.23-1.22-.86-1.31-1.69.94.17,1.25.84,1.31,1.69Z"/><path class="cls-9" d="m329.47,723.09c-.03.39-.06.79-.1,1.18-.08-.28-.2-.56-.23-.84,0-.1.21-.23.32-.34Z"/><path class="cls-4" d="m374.63,743.26c.05-8.39.1-16.79.15-25.18,1.38,8.4,1.44,16.8-.15,25.18Z"/><path class="cls-4" d="m520.67,763.08c.99,4.04.83,8.14.6,12.25-2.88-3.95-1.83-8.1-.6-12.25Z"/><path class="cls-9" d="m566.25,758.41c-.71-5.47-.52-10.94.11-16.4.65,5.47.63,10.94-.11,16.4Z"/><path class="cls-4" d="m520.47,752.09c.53,2.04.45,4.1.09,6.16-1.36-2.03-1.25-4.09-.09-6.16Z"/><path class="cls-4" d="m521.65,783.14c.06.66.13,1.32.19,1.98-1.14-.55-1.1-1.22-.19-1.98Z"/><path class="cls-9" d="m566.35,739.36c-.03-.47-.06-.95-.09-1.42.03.47.06.95.09,1.42Z"/><path class="cls-9" d="m338.59,707.08c-.44-7.89.18-15.38,5.01-21.97,4.9-6.7,13.4-7.16,17.94-.3,6.82,10.3,7.66,34.98-2.97,45.9-6.77,6.95-15.16,4.5-17.92-5.08-1.77-6.11-2.58-12.32-2.05-18.55Zm22.95-5.3c.35-2.78-.31-5.88-1.14-8.93-1.11-4.07-3.32-7.81-7.68-8.23-4.19-.4-6.97,2.91-8.64,6.51-4.22,9.14-2.66,18.25,1.24,26.97,1.41,3.15,4.31,4.02,7.97,2.02,7.35-4.01,8.19-10.7,8.24-18.34Z"/><path class="cls-9" d="m529.72,705.83c-.63-7.08.42-13.47,3.31-19.7,2.91-6.28,12.12-9.27,17.51-2.74,4.14,5.02,6.38,10.54,6.82,16.71.63,8.77.61,17.54-2.55,26.05-1.78,4.79-4.62,8.07-9.69,8.87-3.59.57-9.51-3.96-11.49-8.28-3.08-6.75-5.04-13.71-3.9-20.9Zm23.87-6.67c2.07-5.35-.97-8.95-4.15-12.63-2.89-3.35-6.1-4.42-10.05-2.16-3.37,1.93-5.83,8.06-4.85,11.78-.04,1.64-.08,3.29-.12,4.93-.67.1-1.29.34-1.28,1.11.01.76.64.99,1.32,1.05.01.65.02,1.3.03,1.95-2.13,6.96-.22,12.94,4.76,17.93,2.4,2.4,5.62,3.79,8.83,1.78,4.67-2.92,7.4-12.98,5.46-18.68.01-2.35.03-4.7.04-7.04Z"/><path class="cls-3" d="m361.54,701.79c-.05,7.63-.9,14.32-8.24,18.34-3.66,2-6.56,1.13-7.97-2.02-3.9-8.72-5.46-17.83-1.24-26.97,1.66-3.59,4.45-6.91,8.64-6.51,4.36.42,6.58,4.16,7.68,8.23.83,3.05,1.48,6.15,1.14,8.93Z"/><path class="cls-1" d="m553.55,706.21c1.94,5.7-.79,15.76-5.46,18.68-3.21,2.01-6.43.61-8.83-1.78-4.99-4.98-6.9-10.96-4.76-17.93,1.56,1.03.92,2.69,1.17,4.09.81,4.53,4.41,7.5,8.91,7.92,5.2.48,6.23-3.42,7.75-6.87.58-1.3-.29-3.06,1.22-4.11Z"/><path class="cls-3" d="m553.55,706.21c-1.52,1.05-.64,2.8-1.22,4.11-1.53,3.45-2.55,7.35-7.75,6.87-4.5-.42-8.1-3.39-8.91-7.92-.25-1.4.39-3.06-1.17-4.09-.01-.65-.02-1.3-.03-1.95-.01-.72-.03-1.44-.04-2.15.04-1.64.08-3.29.12-4.93.38.02.77.03,1.15.05,1.75,2.38.62,5.11.89,7.67.84,7.76,3.3,9.29,10.76,7.44,3.83-.94,3.47-3.89,4.17-6.41.51-1.84-.61-3.98.92-5.68.38-.02.77-.03,1.15-.05-.01,2.35-.03,4.7-.04,7.04Z"/><path class="cls-1" d="m553.59,699.16c-.38.02-.77.03-1.15.05-.37-1.98-.74-3.96-1.11-5.94.26-1.32-.39-1.98-1.61-2.23-.23-1.34-.99-2.27-2.21-2.85-4.38-4.28-7.27-3.68-9.8,2.02-.11.59-.22,1.17-.33,1.76-1.16.34-1.83.99-1.47,2.3-.07.64-.14,1.27-.21,1.91-.38-.02-.77-.03-1.15-.05-.98-3.71,1.48-9.85,4.85-11.78,3.95-2.26,7.16-1.19,10.05,2.16,3.18,3.68,6.22,7.28,4.15,12.63Z"/><path class="cls-1" d="m534.42,701.08c.01.72.03,1.44.04,2.15-.68-.06-1.31-.28-1.32-1.05-.01-.76.61-1.01,1.28-1.11Z"/><path class="cls-3" d="m547.51,688.2c-3.52-.56-6.75.31-9.8,2.02,2.53-5.7,5.43-6.3,9.8-2.02Z"/><path class="cls-3" d="m537.38,691.99c.27,1.26-.24,2.01-1.48,2.3-.35-1.31.32-1.96,1.48-2.3Z"/><path class="cls-3" d="m551.33,693.28c-1.24-.23-1.79-.97-1.61-2.23,1.22.25,1.88.9,1.61,2.23Z"/><path class="cls-11" d="m468.02,628.04v-50.58l64.63-62.75c155.48-147.98,225.72-226.66,226.66-318.45,0-61.81-29.97-118.95-120.82-118.95-55.26,0-101.15,28.1-129.25,51.51l-26.22-58.07c42.15-35.59,102.09-61.82,172.33-61.82,131.12,0,186.38,89.91,186.38,177.02,0,112.39-81.48,203.24-209.8,326.88l-48.7,44.96v1.87h273.49v68.37h-388.69Z"/><rect class="cls-10" x="57.92" y="330.12" width="428.38" height="116.74"/></svg>