<?xml version="1.0" encoding="UTF-8"?><svg id="Rock" xmlns="http://www.w3.org/2000/svg" viewBox="0 0 325 325"><defs><style>.cls-1{fill:#333;}.cls-1,.cls-2,.cls-3,.cls-4{stroke-width:0px;}.cls-2{fill:#505353;}.cls-3{fill:#8d8a85;}.cls-4{fill:#675a5e;}</style></defs><path class="cls-2" d="m50.2,144.55c-2.39.98-4.72,2.05-6.97,3.23-14.21,7.32-25.87,18.25-33.47,31.42-.88-5.33-1.34-10.81-1.34-16.39,0-29.8,13.06-56.58,33.86-75.06-1.39,5.86-2.14,12.03-2.14,18.4,0,9.99,1.83,19.48,5.13,28.04,1.39,3.63,3.05,7.09,4.94,10.36Z"/><path class="cls-4" d="m58.94,141.49c-2.55,1.67-5.01,3.45-7.37,5.31-.49-.74-.93-1.48-1.37-2.24,2.83-1.16,5.75-2.18,8.74-3.06Z"/><path class="cls-4" d="m140.55,156.45c-8.74,9.52-19.94,16.01-32.4,18.05,4.02-9.98,10.16-19.15,17.97-27.17,5.16,2.58,10.01,5.65,14.43,9.12Z"/><path class="cls-4" d="m58.94,141.49c-2.55,1.67-5.01,3.45-7.37,5.31-.49-.74-.93-1.48-1.37-2.24,2.83-1.16,5.75-2.18,8.74-3.06Z"/><path class="cls-4" d="m140.55,156.45c-8.74,9.52-19.94,16.01-32.4,18.05,4.02-9.98,10.16-19.15,17.97-27.17,5.16,2.58,10.01,5.65,14.43,9.12Z"/><path class="cls-4" d="m161.51,249.49c-.23.43-.47.85-.72,1.28h-.01c-.4.22-.8.44-1.2.65.65-.62,1.3-1.27,1.93-1.93Z"/><path class="cls-4" d="m150.41,69.8s-.01,0-.03-.02h.01s.01.01.01.02Z"/><path class="cls-1" d="m97.35,37.17c-3.63,8.05-5.93,17.05-6.54,26.58-18.44,3.57-35.11,12.05-48.54,24,6.75-28.35,28.71-49.38,55.08-50.58Z"/><path class="cls-4" d="m58.94,141.49c-2.55,1.67-5.01,3.45-7.37,5.31-.49-.74-.93-1.48-1.37-2.24,2.83-1.16,5.75-2.18,8.74-3.06Z"/><path class="cls-4" d="m140.55,156.45c-8.74,9.52-19.94,16.01-32.4,18.05,4.02-9.98,10.16-19.15,17.97-27.17,5.16,2.58,10.01,5.65,14.43,9.12Z"/><path class="cls-4" d="m202.9,36.7c-8.56,3.98-16.52,9.97-23.58,17.59-5.88,6.34-11.16,13.81-15.68,22.21-2.21,4.11-4.23,8.42-6.06,12.95-2.84,7.01-5.19,14.48-6.99,22.33h0c-.24,1.01-.46,2.02-.66,3.04-.18.82-.34,1.64-.49,2.46-.19.92-.35,1.84-.52,2.78-.18.92-.32,1.86-.47,2.8-.09.52-.16,1.05-.24,1.58-.01.05-.03.1-.03.15-3.76-.7-7.61-1.23-11.51-1.58-.13-.63-.27-1.26-.38-1.89-.18-.98-.34-1.97-.47-2.97-.37-2.74-.56-5.55-.56-8.41,0-4.67.52-9.2,1.49-13.54,2.28-10.2,7.07-19.29,13.63-26.41t.03.02s0-.02-.01-.03c-10.51-19.61-29.27-32.66-50.66-32.66-.8,0-1.59.02-2.39.06C107.29,15.08,127.24,0,150.24,0s42.66,14.86,52.66,36.7Z"/><path class="cls-2" d="m150.4,69.77h-.01c-6.56,7.13-11.35,16.23-13.63,26.42-.97,4.34-1.49,8.87-1.49,13.54,0,2.86.19,5.67.56,8.41.13,1,.29,1.99.47,2.97.12.63.25,1.26.38,1.89-3.85-.36-7.77-.54-11.75-.54s-7.96.18-11.85.55c-10.27-9.5-17.78-22.85-20.87-38.16-1.03-5.09-1.58-10.39-1.58-15.84,0-1.77.06-3.54.18-5.28.62-9.54,2.92-18.53,6.54-26.58.8-.04,1.59-.06,2.39-.06,21.39,0,40.15,13.05,50.66,32.66Z"/><path class="cls-4" d="m150.41,69.8s-.01,0-.03-.02h.01s.01.01.01.02Z"/><path class="cls-2" d="m211.26,145.4c-2.74-.42-5.51-.64-8.34-.64-.56,0-1.11.01-1.67.03-.34.01-.69.02-1.03.04-.81.04-1.62.09-2.43.17-.53.05-1.05.11-1.58.17h-.01c-10.95-8.18-23.97-14.52-38.32-18.39-.38-.1-.78-.21-1.18-.31-.29-.08-.59-.15-.9-.22-2.49-.63-5.03-1.18-7.61-1.65,0-.05.01-.1.03-.15.07-.53.15-1.06.24-1.58.15-.94.29-1.88.47-2.8.16-.94.32-1.86.52-2.78.15-.82.31-1.64.49-2.46.21-1.02.43-2.03.66-3.03h0c1.8-7.85,4.14-15.32,6.99-22.34,1.83-4.53,3.85-8.84,6.06-12.95,4.53-8.39,9.8-15.87,15.68-22.21,7.06-7.62,15.02-13.61,23.58-17.59,3.36,7.29,5.6,15.36,6.5,23.92.29,2.75.44,5.57.44,8.41,0,15.51-4.42,29.85-11.89,41.38.88,1.42,1.72,2.86,2.52,4.34,5.17,9.41,8.87,19.73,10.79,30.66Z"/><path class="cls-4" d="m150.41,69.8s-.01,0-.03-.02h.01s.01.01.01.02Z"/><path class="cls-4" d="m235.68,109.74c0,2.52-.15,5.01-.44,7.44-1.43,11.93-6.23,22.66-13.31,30.97-3.46-1.26-7.02-2.18-10.67-2.74-1.92-10.93-5.62-21.24-10.79-30.66-.8-1.47-1.64-2.91-2.52-4.34,7.47-11.53,11.89-25.86,11.89-41.38,0-2.84-.15-5.66-.44-8.41,15.65,9.46,26.28,27.91,26.28,49.12Z"/><path class="cls-4" d="m315.12,206.52c-2.78-5.6-6.62-10.97-11.43-16.04-5.18-5.47-11.48-10.59-18.73-15.27-14.13-9.12-31.87-16.57-52.04-21.7-10.67-2.72-22.02-4.8-33.88-6.12-3.2-.37-6.44-.67-9.71-.92-7.06-.54-14.29-.82-21.63-.82-2.54,0-5.07.03-7.58.1-10.98.29-21.65,1.2-31.89,2.68-1.23.17-2.45.35-3.67.55-20.57,3.25-39.32,8.77-55.28,16.03-25.17,11.43-43.35,27.18-50.62,45.11h0c-2.29,5.66-3.49,11.52-3.49,17.54,0,19.38,12.51,37.2,33.43,51.23,14.02,9.41,31.82,17.12,52.16,22.46,18.05,4.76,38.1,7.65,59.29,8.2,1.29.04,2.59.07,3.89.08,1.25.02,2.5.03,3.76.03,20.2,0,39.47-2.11,57.11-5.95,10.7-2.32,20.79-5.27,30.12-8.78,17.71-6.65,32.67-15.26,43.79-25.26.59-.53,1.16-1.06,1.73-1.61,12.59-11.92,19.78-25.71,19.78-40.4,0-7.31-1.78-14.39-5.11-21.14Zm-160.76-36.35c1.57,1.98,3.03,4.03,4.37,6.14,7.32,11.44,11.51,24.75,11.51,38.94,0,5.18-.56,10.24-1.62,15.14-.96,4.38-2.31,8.61-4.04,12.68-.29.7-.6,1.4-.92,2.09-.67,1.47-1.38,2.91-2.15,4.33-.63.66-1.28,1.31-1.93,1.93-2.62,1.43-5.31,2.74-8.06,3.93-4.97,2.15-10.14,3.92-15.48,5.27-1.88-8.16-2.89-16.79-2.89-25.73,0-2.74.09-5.44.28-8.12.4-5.69,1.2-11.22,2.38-16.54h0c2.62-11.96,7.1-22.9,13.03-32.28-.9-5.2-1.55-10.55-1.96-16.02,2.69,2.58,5.2,5.34,7.48,8.24Z"/><path class="cls-1" d="m170.24,215.25c0,5.18-.56,10.24-1.62,15.14-.96,4.38-2.31,8.61-4.04,12.68-.29.7-.6,1.4-.92,2.09-.67,1.47-1.38,2.91-2.15,4.33-.63.66-1.28,1.31-1.93,1.93-2.62,1.43-5.31,2.74-8.06,3.93-4.97,2.15-10.14,3.92-15.48,5.27-1.88-8.16-2.89-16.79-2.89-25.73,0-2.74.09-5.44.28-8.12.4-5.69,1.2-11.22,2.38-16.54h0c2.62-11.96,7.1-22.9,13.03-32.28-.9-5.2-1.55-10.55-1.96-16.02,2.69,2.58,5.2,5.34,7.48,8.24,1.57,1.98,3.03,4.03,4.37,6.14,7.32,11.44,11.51,24.75,11.51,38.94Z"/><path class="cls-1" d="m181.1,198.33c0,13.54-3.37,26.18-9.19,36.84-1.18,2.16-2.46,4.24-3.83,6.23-1.18,1.7-2.42,3.33-3.72,4.89-.92,1.1-1.87,2.17-2.85,3.2.77-1.42,1.48-2.86,2.15-4.33.32-.69.63-1.39.92-2.09,1.73-4.07,3.08-8.3,4.04-12.68,1.06-4.9,1.62-9.96,1.62-15.14,0-14.19-4.19-27.5-11.51-38.94-1.34-2.11-2.8-4.16-4.37-6.14-2.28-2.9-4.79-5.66-7.48-8.24.41,5.47,1.06,10.82,1.96,16.02-5.93,9.38-10.41,20.32-13.03,32.27h0c-1.18,5.33-1.98,10.86-2.38,16.55-.19,2.68-.28,5.38-.28,8.12,0,8.94,1.01,17.57,2.89,25.73,5.34-1.35,10.51-3.12,15.48-5.27,2.75-1.19,5.44-2.5,8.06-3.93-3.14,3.03-6.55,5.69-10.19,7.92-3.85,2.37-7.95,4.26-12.25,5.61-4.99,1.57-10.23,2.41-15.65,2.41-9.1,0-17.73-2.37-25.45-6.6-15.43-8.45-27.22-24.35-31.93-43.68-1.44-5.96-2.22-12.25-2.22-18.75,0-12.08,2.68-23.44,7.39-33.32,5.39-11.31,13.44-20.68,23.17-26.98,8.49-5.5,18.27-8.67,28.68-8.74h.36c14.74,0,28.22,6.2,38.63,16.46,3.19,3.15,6.1,6.68,8.65,10.54,7.74,11.64,12.33,26.22,12.33,42.04Z"/><path class="cls-3" d="m308.79,149.24c0,6.95-.41,13.75-1.21,20.37-.49,4.11-1.12,8.13-1.9,12.08-5.72-4.14-12.38-6.51-19.49-6.51-9.34,0-17.91,4.1-24.61,10.92-9.09-18.21-23.13-31.92-39.65-37.95,7.07-8.31,11.88-19.04,13.31-30.97.29-2.43.44-4.92.44-7.44,0-21.2-10.63-39.66-26.28-49.12-.9-8.55-3.14-16.63-6.5-23.92,7.8-3.62,16.1-5.57,24.7-5.57,44.84,0,81.18,52.87,81.18,118.11Z"/><path class="cls-4" d="m140.55,156.45c-8.74,9.52-19.94,16.01-32.4,18.05,4.02-9.98,10.16-19.15,17.97-27.17,5.16,2.58,10.01,5.65,14.43,9.12Z"/><path class="cls-4" d="m208.62,264.1c.13.05.27.09.4.14-.12.14-.25.27-.37.41-.01-.19-.03-.37-.03-.55Z"/><path class="cls-4" d="m138.33,136.69c-4.42,3.26-8.5,6.81-12.2,10.64-12.16-6.11-26.13-9.58-41-9.58-9.14,0-17.94,1.31-26.18,3.74-2.99.88-5.91,1.9-8.74,3.06-1.89-3.27-3.55-6.73-4.94-10.36-3.3-8.56-5.13-18.06-5.13-28.04,0-6.37.75-12.54,2.14-18.4,13.43-11.95,30.1-20.43,48.54-24-.12,1.74-.18,3.51-.18,5.28,0,5.45.55,10.75,1.58,15.84,3.1,15.31,10.6,28.67,20.87,38.16,7.22,6.68,15.83,11.45,25.25,13.66Z"/><path class="cls-4" d="m140.55,156.45c-8.74,9.52-19.94,16.01-32.4,18.05,4.02-9.98,10.16-19.15,17.97-27.17,5.16,2.58,10.01,5.65,14.43,9.12Z"/><path class="cls-2" d="m196.19,145.17c-.22.03-.42.06-.64.09-.11.01-.23.02-.33.04-.12.02-.22.03-.32.05-.27.04-.55.08-.81.13-.5.08-1.02.17-1.52.27-.3.05-.59.12-.89.17-.03.01-.06.01-.08.02-.05.01-.11.02-.15.03-.06.02-.12.03-.18.04l-.78.18c-.27.06-.53.12-.8.19-.12.03-.24.06-.36.09-.91.23-1.82.49-2.7.77-.34.1-.68.21-1,.32-.39.12-.76.25-1.14.39-.37.13-.74.26-1.1.4-.03.01-.06.02-.09.03-.03.01-.08.03-.11.04-.01.01-.04.02-.06.02-.28.1-.54.21-.81.32-.04.02-.07.03-.11.05-.06.02-.12.05-.18.07-.6.24-1.19.49-1.77.75-.59.26-1.18.53-1.75.81-.4.19-.8.39-1.2.59-.34.17-.66.34-1,.52-.66.35-1.31.71-1.96,1.09-.41.23-.81.48-1.21.73-.22.13-.46.27-.68.42-.7.43-1.4.89-2.09,1.36-.29.2-.57.4-.87.61-.19.14-.4.28-.59.42-.06.03-.1.07-.13.1,0,0-.01,0-.01.01-.07.04-.14.09-.21.15-.13.1-.27.19-.4.29-.18.13-.35.27-.55.41-.05.04-.11.09-.17.14-.09.06-.18.13-.27.2-.1.08-.22.17-.32.25-.3.22-.58.45-.86.68-.17.14-.35.28-.51.42-.28.21-.53.43-.78.66-.28.23-.56.46-.83.7-.72.63-1.44,1.28-2.14,1.95-2.61,2.45-5.07,5.14-7.37,8.03-2.28-2.9-4.79-5.66-7.48-8.24h0c-2.01-1.93-4.1-3.76-6.33-5.48-3.81-3-7.94-5.69-12.32-8.02-.7-.38-1.4-.75-2.11-1.1,3.7-3.83,7.79-7.39,12.21-10.64-6.13-1.44-11.92-3.96-17.2-7.4-2.84-1.83-5.53-3.93-8.05-6.26,3.89-.37,7.84-.55,11.85-.55s7.9.18,11.75.54c3.9.35,7.75.88,11.51,1.58,2.58.47,5.11,1.02,7.6,1.65.31.07.61.14.9.22.4.1.8.21,1.18.31,14.36,3.87,27.37,10.21,38.32,18.39Z"/><path class="cls-4" d="m209.02,264.24c-.12.14-.25.27-.37.41-.01-.19-.03-.37-.03-.55.13.05.27.09.4.14Z"/><path class="cls-4" d="m217.56,273.16c0,5.3-1.23,10.32-3.44,14.81-.39.8-.81,1.58-1.27,2.35-6.14,10.36-17.66,17.33-30.86,17.33-19.65,0-35.57-15.44-35.57-34.49,0-4.92,1.06-9.59,2.97-13.82.62-1.38,1.33-2.71,2.13-3.99,2.75-1.19,5.44-2.5,8.06-3.93.65-.62,1.3-1.27,1.93-1.93.77-1.42,1.48-2.86,2.15-4.33.32-.69.63-1.39.92-2.09,1.13-.62,2.3-1.18,3.5-1.67,2.22-.92,4.57-1.63,7-2.09.88-.17,1.77-.3,2.67-.4,1.39-.17,2.8-.25,4.24-.25,11.03,0,20.89,4.87,27.41,12.52,5.1,5.96,8.16,13.62,8.16,21.98Z"/><path class="cls-2" d="m305.68,181.69c-3.3,16.88-9.11,32.21-16.83,45.09-4.92,8.23-10.63,15.45-16.94,21.44.5-4.36.77-8.8.77-13.34,0-8.46-.9-16.66-2.59-24.42-1.9-8.73-4.79-16.93-8.5-24.37,6.71-6.82,15.27-10.92,24.61-10.92,7.1,0,13.77,2.37,19.49,6.51Z"/><path class="cls-4" d="m325,223.3c0,21.08-10.94,39-26.18,45.51.25-2.33.38-4.72.38-7.13,0-3.94-.34-7.78-1-11.49h0c10.77-13.76,17.02-30.15,17.02-47.76,0-4.24-.37-8.4-1.06-12.48,6.71,8.65,10.83,20.39,10.83,33.34Z"/><path class="cls-4" d="m208.62,264.1c.13.05.27.09.4.14-.12.14-.25.27-.37.41-.01-.19-.03-.37-.03-.55Z"/><path class="cls-2" d="m299.21,261.68c0,2.41-.13,4.8-.38,7.13-2.89,26.9-21.92,47.68-44.94,47.68-5.66,0-11.07-1.25-16.07-3.56,11.2-8.38,20.44-20.68,26.59-35.45,4.41-2.23,8.59-4.72,12.54-7.44,8.22-5.68,15.4-12.37,21.25-19.85.66,3.71,1,7.55,1,11.49Z"/><path class="cls-1" d="m315.23,202.43c0,17.61-6.25,33.99-17.02,47.75h0c-5.85,7.49-13.03,14.18-21.25,19.86-3.95,2.72-8.14,5.21-12.54,7.44,1.52-3.67,2.86-7.48,3.98-11.43,1.62-5.69,2.82-11.66,3.52-17.83,6.31-5.99,12.01-13.21,16.94-21.44,7.72-12.88,13.53-28.22,16.83-45.09.78-3.95,1.41-7.97,1.9-12.08,3.14,6.44,5.38,13.25,6.59,20.34.69,4.08,1.06,8.24,1.06,12.48Z"/><path class="cls-2" d="m237.82,312.93c-10.28,7.67-22.19,12.07-34.91,12.07-14.44,0-27.85-5.66-38.97-15.37-.78-.68-1.54-1.38-2.29-2.09-3.72-3.51-7.14-7.51-10.23-11.89-4.5-6.34-8.29-13.51-11.24-21.31-.79-2.1-1.53-4.25-2.19-6.43-.3-.98-.58-1.97-.85-2.96-.39-1.43-.76-2.87-1.1-4.33,5.34-1.35,10.51-3.12,15.48-5.27,2.75-1.19,5.44-2.5,8.06-3.93.4-.21.8-.43,1.2-.65h.01c.25-.43.49-.85.72-1.28.77-1.42,1.48-2.86,2.15-4.33.24.37.48.75.7,1.13.35.58.68,1.16,1.01,1.76,4.16,7.66,6.59,16.89,6.59,26.83,0,3.36-.28,6.63-.81,9.79,2.27.72,4.59,1.37,6.94,1.96,9.76,2.45,20.12,3.76,30.85,3.76,1.31,0,2.61-.02,3.91-.07.79-.01,1.57-.04,2.36-.08,2.58,5.1,5.82,9.66,9.6,13.47,3.84,3.9,8.23,7.03,13.01,9.22Z"/><path class="cls-4" d="m212.78,162.81c0,30.36-13.57,57.6-35.03,76.1-.59.51-1.18,1.01-1.78,1.5-.3-.36-.6-.73-.89-1.1-1.09-1.34-2.14-2.72-3.17-4.14-1.13-1.55-2.23-3.14-3.29-4.78,1.06-4.9,1.62-9.96,1.62-15.14,0-14.19-4.19-27.5-11.51-38.94-1.34-2.11-2.8-4.16-4.37-6.14,2.3-2.89,4.76-5.58,7.37-8.03.7-.67,1.42-1.32,2.14-1.95.27-.24.55-.47.83-.7.25-.23.51-.45.78-.66.16-.14.34-.28.51-.42.28-.23.56-.46.86-.68.1-.08.22-.17.32-.25.09-.07.18-.14.27-.2.06-.05.12-.1.17-.14.2-.14.37-.28.55-.41.13-.1.27-.19.4-.29.07-.06.14-.11.21-.15,0-.01.01-.01.01-.01.03-.03.07-.07.13-.1.19-.14.4-.28.59-.42.3-.21.58-.41.87-.61.69-.47,1.39-.93,2.09-1.36.22-.15.46-.29.68-.42.4-.25.8-.5,1.21-.73.65-.38,1.3-.74,1.96-1.09.34-.18.66-.35,1-.52.4-.2.8-.4,1.2-.59.57-.28,1.16-.55,1.75-.81.58-.26,1.17-.51,1.77-.75.06-.02.12-.05.18-.07.04-.02.07-.03.11-.05.27-.11.53-.22.81-.32.02,0,.05,0,.06-.02.03-.01.08-.03.11-.04.03,0,.06-.02.09-.03.36-.14.73-.27,1.1-.4.38-.14.75-.27,1.14-.39.32-.11.66-.22,1-.32.88-.28,1.79-.54,2.7-.77.12-.03.24-.06.36-.09.27-.07.53-.13.8-.19l.78-.18c.06-.01.12-.02.18-.04.04-.01.1-.02.15-.03.02,0,.05,0,.08-.02.3-.05.59-.12.89-.17.5-.1,1.02-.19,1.52-.27.26-.05.54-.09.81-.13.1-.02.2-.03.32-.05.1-.02.22-.03.33-.04.22-.03.42-.06.64-.09h.02c.96.72,1.91,1.46,2.83,2.22,4.14,3.34,7.96,6.96,11.41,10.81.78.87,1.54,1.77,2.3,2.67.03.64.03,1.29.03,1.94Z"/><path class="cls-2" d="m261.58,186.1c-5.38,5.48-9.55,12.72-11.94,21-6.71.75-13,3.28-18.53,7.18-13.49,9.5-22.54,27.16-22.54,47.4,0,.81.01,1.62.04,2.42-12.17-4.24-23.27-12.47-32.65-23.69,22.49-18.52,36.8-46.41,36.8-77.6,0-.65,0-1.3-.03-1.94-.75-.9-1.52-1.79-2.3-2.66-4.22-4.73-9.01-9.09-14.24-13.03.53-.06,1.05-.12,1.58-.17.81-.08,1.62-.13,2.43-.17.34-.02.69-.03,1.03-.04.56-.02,1.11-.03,1.67-.03,2.83,0,5.6.22,8.34.64,3.66.56,7.21,1.48,10.67,2.74,16.52,6.03,30.55,19.74,39.65,37.95Z"/><path class="cls-4" d="m215.21,290.24c-.79.04-1.57.07-2.36.08-1.3.05-2.6.07-3.91.07-10.73,0-21.09-1.31-30.85-3.76-2.35-.59-4.67-1.24-6.94-1.96.53-3.16.81-6.43.81-9.79,0-9.94-2.43-19.17-6.59-26.83-.33-.6-.66-1.18-1.01-1.76-.22-.38-.46-.76-.7-1.13.32-.69.63-1.39.92-2.09,1.73-4.07,3.08-8.3,4.04-12.68,1.06,1.64,2.16,3.23,3.29,4.78,1.03,1.42,2.08,2.8,3.17,4.14.29.37.59.74.89,1.1,9.38,11.22,20.47,19.46,32.65,23.69,0,.18.01.36.03.55-.02.01,0,.02,0,.04.37,8.41,2.31,16.31,5.47,23.28.35.77.71,1.53,1.09,2.27Z"/><path class="cls-1" d="m268.39,266.06c-1.12,3.95-2.46,7.76-3.98,11.43-6.15,14.76-15.39,27.06-26.59,35.45-9.46-4.33-17.39-12.38-22.61-22.69-3.8-7.51-6.15-16.23-6.56-25.55,0-.02-.01-.03,0-.04.12-.14.25-.27.37-.41-.13-.05-.27-.09-.4-.14-.03-.8-.04-1.61-.04-2.42,0-20.23,9.05-37.9,22.54-47.4,5.53-3.91,11.82-6.43,18.53-7.18-1.46,5.06-2.25,10.51-2.25,16.2,0,13.63,4.57,25.95,11.92,34.71,2.68,3.2,5.75,5.92,9.08,8.05Z"/><path class="cls-4" d="m208.62,264.1c.13.05.27.09.4.14-.12.14-.25.27-.37.41-.01-.19-.03-.37-.03-.55Z"/><path class="cls-4" d="m272.68,234.89c0,4.54-.27,8.98-.77,13.34-.71,6.17-1.9,12.14-3.52,17.83-3.33-2.13-6.4-4.86-9.08-8.05-7.35-8.75-11.92-21.07-11.92-34.71,0-5.69.8-11.14,2.25-16.2,2.39-8.28,6.56-15.52,11.94-21,3.71,7.44,6.6,15.64,8.5,24.37,1.7,7.76,2.59,15.96,2.59,24.42Z"/><path class="cls-4" d="m161.65,307.54c-7.09,9.51-17.23,15.45-28.49,15.45-13.41,0-25.25-8.44-32.21-21.27-1.06-1.95-2.02-4.01-2.83-6.14,2.9.62,5.85,1.15,8.84,1.57,2.82-2.61,5.34-5.68,7.49-9.12,9.48-3.18,18.19-7.84,25.73-13.69,2.95,7.8,6.74,14.97,11.23,21.31,3.1,4.38,6.51,8.37,10.23,11.89Z"/><path class="cls-2" d="m108.16,174.5c-3.57,8.77-5.48,18.17-5.48,27.93,0,5.21.55,10.32,1.61,15.27.28,1.37.6,2.73.99,4.09-.85.05-1.72.07-2.59.07-10.97,0-21.24-3.43-30.05-9.4-11.73,4.37-21.14,15.42-25.31,29.62-1.52,5.14-2.34,10.7-2.34,16.49,0,3.69.34,7.28.99,10.74-16.96-15.6-27.3-36.22-27.3-58.85,0-1.13.03-2.25.07-3.37.91-20.02,9.9-38.32,24.35-52.74,2.65-2.65,5.48-5.17,8.49-7.54,2.36-1.86,4.82-3.64,7.37-5.31,8.24-2.42,17.04-3.74,26.18-3.74,14.87,0,28.84,3.47,41,9.58-7.81,8.02-13.94,17.2-17.97,27.17Z"/><path class="cls-4" d="m52.37,286.8C21.62,275.12,0,247.49,0,215.25c0-13.02,3.52-25.29,9.76-36.06,7.61-13.17,19.26-24.1,33.47-31.42,2.25-1.17,4.58-2.24,6.97-3.23.44.76.88,1.5,1.37,2.24-3.01,2.37-5.84,4.89-8.49,7.54-14.44,14.42-23.44,32.72-24.35,52.74-.04,1.11-.07,2.23-.07,3.37,0,22.64,10.33,43.26,27.3,58.85,1.16,6.41,3.38,12.34,6.41,17.5Z"/><path class="cls-4" d="m58.94,141.49c-2.55,1.67-5.01,3.45-7.37,5.31-.49-.74-.93-1.48-1.37-2.24,2.83-1.16,5.75-2.18,8.74-3.06Z"/><path class="cls-1" d="m98.12,295.58c.81,2.13,1.77,4.19,2.83,6.14-5.17,3.18-11.01,4.96-17.17,4.96-12.93,0-24.38-7.83-31.41-19.88-3.04-5.16-5.25-11.09-6.41-17.5-.65-3.46-.99-7.05-.99-10.74,0-5.79.83-11.35,2.34-16.49,4.17-14.19,13.57-25.25,25.31-29.62,8.81,5.98,19.09,9.4,30.05,9.4.87,0,1.74-.02,2.59-.07,1.3,4.82,3.08,9.48,5.31,13.95-7.27,6.45-12.65,15.94-14.98,26.94-.81,3.9-1.25,7.97-1.25,12.19,0,6.04.9,11.81,2.55,17.13.35,1.22.77,2.41,1.22,3.58Z"/><path class="cls-2" d="m133.15,234.89c0,8.94,1.01,17.57,2.89,25.73-1.79.46-3.62.86-5.47,1.22-2.93-2.66-5.67-5.45-8.2-8.38,0-.02,0-.03-.02-.04-4.7-5.47-8.67-11.37-11.78-17.67-2.22-4.48-4.01-9.14-5.3-13.96-.39-1.35-.71-2.71-.99-4.08-1.06-4.96-1.61-10.07-1.61-15.28,0-9.76,1.92-19.16,5.49-27.93,12.45-2.04,23.65-8.53,32.39-18.05,2.23,1.72,4.32,3.55,6.33,5.47h0c.41,5.48,1.06,10.83,1.96,16.03-5.93,9.38-10.41,20.32-13.03,32.27h0c-1.18,5.33-1.98,10.86-2.38,16.55-.19,2.68-.28,5.38-.28,8.12Z"/><path class="cls-1" d="m140.55,156.45c-8.74,9.52-19.94,16.01-32.4,18.05,4.02-9.98,10.16-19.15,17.97-27.17,5.16,2.58,10.01,5.65,14.43,9.12Z"/><path class="cls-2" d="m140.18,274.34c-7.55,5.85-16.26,10.52-25.73,13.69-2.15,3.45-4.67,6.51-7.49,9.12-2.99-.42-5.94-.95-8.84-1.57-.46-1.16-.87-2.35-1.22-3.58-1.65-5.32-2.55-11.09-2.55-17.13,0-4.22.44-8.29,1.25-12.19,2.33-11.01,7.71-20.49,14.98-26.94,3.11,6.3,7.07,12.2,11.78,17.67.01.01.01.02.01.04,2.54,2.93,5.28,5.73,8.21,8.38,1.84-.36,3.67-.76,5.47-1.22.57,2.48,1.22,4.91,1.95,7.29.66,2.18,1.4,4.33,2.2,6.43Z"/></svg>