<?xml version="1.0" encoding="UTF-8"?><svg id="Spaceman" xmlns="http://www.w3.org/2000/svg" viewBox="0 0 848.72 848.72"><defs><style>.cls-1{fill:#25083d;}.cls-1,.cls-2,.cls-3,.cls-4,.cls-5,.cls-6,.cls-7,.cls-8,.cls-9{stroke-width:0px;}.cls-3{fill:#000050;}.cls-4{fill:#fff;}.cls-5{fill:#505353;}.cls-6,.cls-7{fill:#b4bed2;}.cls-7{opacity:.3;}.cls-8{fill:#fafaff;}.cls-10{opacity:.3;}.cls-9{fill:#675a5e;}</style></defs><circle class="cls-4" cx="424.36" cy="424.36" r="424.36"/><path class="cls-1" d="m584.02,492.32c0,29.41-15.31,53.25-34.19,53.25s-25.18-23.84-25.18-53.25,6.3-53.25,25.18-53.25,34.19,23.84,34.19,53.25Z"/><path class="cls-1" d="m324.68,492.32c0,29.41-6.3,53.25-25.18,53.25s-34.19-23.84-34.19-53.25,15.31-53.25,34.19-53.25,25.18,23.84,25.18,53.25Z"/><polygon class="cls-5" points="523.98 495.62 543.99 627.65 523.98 759.69 450.69 759.69 459.74 629.62 424.67 495.62 523.98 495.62"/><circle class="cls-2" cx="424.36" cy="163.28" r="93.68"/><ellipse class="cls-8" cx="380.8" cy="110.29" rx="22.07" ry="17.17" transform="translate(78.49 366.77) rotate(-56.46)"/><rect class="cls-9" x="418.81" y="486.71" width="5.19" height="8.91"/><polygon class="cls-9" points="522.79 486.71 325.98 486.71 359.78 241.62 489.95 241.62 522.79 486.71"/><polygon class="cls-4" points="523.98 241.61 489.97 244.62 359.73 244.62 324.74 241.61 350.76 221.6 497.95 221.6 523.98 241.61"/><polygon class="cls-3" points="507.23 228.87 340.76 228.87 350.76 221.6 497.23 221.6 507.23 228.87"/><polygon class="cls-3" points="523.98 241.61 489.97 244.62 359.73 244.62 324.74 241.61 330.29 237.35 517 236.25 523.98 241.61"/><path class="cls-8" d="m404.92,99.43c-.04.48-.17.75-.36.84-.29-4.8-2.24-9.06-5.74-11.78,3.83,1.12,6.49,5.69,6.1,10.94Z"/><polygon class="cls-5" points="424 495.62 387.91 629.36 395.97 759.69 324.69 759.69 304.7 627.12 324.75 495.62 424 495.62"/><polygon class="cls-6" points="418.81 476.87 418.81 495.62 324.75 495.62 325.98 476.87 418.81 476.87"/><polygon class="cls-6" points="523.98 495.62 424 495.62 424 476.87 522.72 476.87 523.98 495.62"/><rect class="cls-4" x="415.07" y="476.87" width="8.93" height="18.75"/><rect class="cls-4" x="424.67" y="476.87" width="8.93" height="18.75"/><rect class="cls-2" x="424" y="476.87" width=".67" height="18.75"/><path class="cls-5" d="m584.02,495.62h-60.05l-35.03-254h45.08c27.61,0,50,22.39,50,50v204Z"/><path class="cls-5" d="m324.74,495.62h-60.05v-204c0-27.61,22.39-50,50-50h46.08l-36.03,254Z"/><path class="cls-2" d="m333.89,750.12h53.66c6.3,0,11.42,5.12,11.42,11.42v14.43c0,1.73-1.41,3.14-3.14,3.14h-70.22c-1.73,0-3.14-1.41-3.14-3.14v-14.43c0-6.3,5.12-11.42,11.42-11.42Z"/><path class="cls-2" d="m460.89,750.12h53.66c6.3,0,11.42,5.12,11.42,11.42v14.43c0,1.73-1.41,3.14-3.14,3.14h-70.22c-1.73,0-3.14-1.41-3.14-3.14v-14.43c0-6.3,5.12-11.42,11.42-11.42Z"/><g class="cls-10"><circle class="cls-7" cx="424.36" cy="424.36" r="424.36"/><ellipse class="cls-4" cx="223.31" cy="191.36" rx="114.42" ry="89.02" transform="translate(-59.57 271.77) rotate(-56.46)"/><ellipse class="cls-4" cx="608.97" cy="767.95" rx="114.42" ry="16.27" transform="translate(-266.74 327.81) rotate(-24.9)"/></g></svg>