<?xml version="1.0" encoding="UTF-8"?><svg id="Space_Ship" xmlns="http://www.w3.org/2000/svg" viewBox="0 0 750.05 231"><defs><style>.cls-1{fill:#25083d;}.cls-1,.cls-2,.cls-3,.cls-4,.cls-5,.cls-6,.cls-7,.cls-8,.cls-9,.cls-10,.cls-11,.cls-12{stroke-width:0px;}.cls-3{fill:#f0f;}.cls-4{fill:red;}.cls-13{fill:none;stroke:#000;stroke-miterlimit:10;stroke-width:3px;}.cls-5{fill:#a00;}.cls-6{fill:#fff;}.cls-7{fill:#505353;}.cls-8{fill:#a8a8a8;}.cls-9{fill:#b4bed2;}.cls-10{fill:#310e55;}.cls-11{fill:#8d8a85;}.cls-12{fill:#675a5e;}</style></defs><path class="cls-2" d="m618.65,37.94H131.41c15.62-4.98,32.51-9.49,50.48-13.46,29.86-6.6,62.69-11.71,97.65-15.03,5.98-.58,12.03-1.09,18.14-1.56.93-.07,1.86-.14,2.8-.21,4.28-.32,8.6-.6,12.94-.86,6.27-.38,12.61-.7,18.99-.96,5.33-.22,10.7-.39,16.11-.54,1.01-.02,2-.04,3.02-.07h0c3.84-.08,7.69-.14,11.57-.19,1.03-.02,2.06-.03,3.09-.03,2.93-.03,5.87-.04,8.82-.04,4.21,0,8.39.02,12.57.07h.01c14.87.18,29.51.67,43.87,1.46,12.94.7,25.66,1.65,38.11,2.83,42.53,4.01,81.93,10.65,116.67,19.4h.01c11.31,2.85,22.11,5.91,32.38,9.19Z"/><path class="cls-1" d="m744.83,122c-.34,6.6-10.81,16.92-12.93,23.3H18.16c-2.12-6.38-12.6-16.7-12.94-23.3l82.57,3.8c121.62,1.99,351.01,1.58,503.96,0l153.08-3.8Z"/><polygon class="cls-4" points="315.83 177.81 315.83 218.62 305.66 211 305.66 177.81 315.83 177.81"/><polygon class="cls-4" points="324.33 177.81 324.33 224.99 318.33 220.49 318.33 177.81 324.33 177.81"/><rect class="cls-4" x="326.83" y="177.81" width="16.25" height="48.19"/><rect class="cls-4" x="365.08" y="177.81" width="13.72" height="48.19"/><rect class="cls-4" x="389.58" y="177.81" width="13.05" height="48.19"/><rect class="cls-4" x="405.33" y="177.81" width="15.89" height="48.19"/><polygon class="cls-4" points="444.4 177.81 444.4 211 432.59 219.85 432.59 177.81 444.4 177.81"/><polygon class="cls-5" points="315.83 177.81 318.33 177.81 318.33 220.49 315.83 218.62 315.83 177.81"/><polygon class="cls-5" points="324.33 177.81 326.83 177.81 326.83 226 325.68 226 324.33 224.99 324.33 177.81"/><path class="cls-2" d="m147.6,37.94c-5.22,1.25-10.34,2.55-15.33,3.89h-12.87c3.91-1.33,7.92-2.63,12.01-3.89h16.19Z"/><path class="cls-10" d="m132.27,41.83c-18.16,4.86-34.76,10.26-49.53,16.11-6.91,2.73-13.42,5.57-19.51,8.49,5.04-2.91,10.42-5.75,16.14-8.49,11.96-5.76,25.36-11.15,40.03-16.11h12.87Z"/><path class="cls-2" d="m630.66,41.83h-12.87c-4.99-1.34-10.11-2.64-15.33-3.89h16.19c4.09,1.26,8.09,2.56,12.01,3.89Z"/><path class="cls-2" d="m34.58,167.81c1.34,1.29,2.74,2.57,4.2,3.83h672.5c1.46-1.26,2.86-2.54,4.2-3.83H34.58Zm688.99-71.64c-7.88-9.96-19.41-19.41-34.08-28.17-.86-.52-1.74-1.04-2.62-1.54-6.1-2.94-12.62-5.78-19.55-8.52-14.78-5.85-31.37-11.25-49.53-16.11H132.27c-18.16,4.86-34.76,10.26-49.53,16.11-6.91,2.73-13.42,5.57-19.51,8.49-.9.52-1.78,1.04-2.66,1.57-14.67,8.76-26.2,18.21-34.08,28.17-3.91,4.94-6.92,10.01-8.96,15.19h715c-2.04-5.18-5.05-10.25-8.96-15.19Zm11.05,21.86H15.44c-.73,3.15-1.1,6.33-1.1,9.54,0,.38.01.77.02,1.15,12.9.75,38.8,1.32,73.43,1.75,121.62,1.51,351.01,1.2,503.96,0,69.6-.56,123.37-1.3,143.96-2.14.01-.25.01-.51.01-.76,0-3.21-.37-6.39-1.1-9.54ZM18.16,145.3c.81,1.9,1.77,3.79,2.85,5.66h708.04c1.08-1.87,2.04-3.76,2.85-5.66H18.16Z"/><path class="cls-8" d="m617.79,41.83H132.27c4.99-1.34,10.11-2.64,15.33-3.89h454.86c5.22,1.25,10.34,2.55,15.33,3.89Z"/><path class="cls-2" d="m60.57,68c-14.67,8.76-26.2,18.21-34.08,28.17-3.91,4.94-6.92,10.01-8.96,15.19-.88,2.2-1.58,4.43-2.09,6.67-.73,3.15-1.1,6.33-1.1,9.54,0,.38.01.77.02,1.15-5.95-.34-9.14-.72-9.14-1.14,0-3.22.43-6.4,1.29-9.55.6-2.24,1.42-4.46,2.45-6.67,2.4-5.18,5.95-10.26,10.56-15.19,9.36-10.03,23.09-19.49,40.52-28.17h.53Z"/><path class="cls-12" d="m690.02,68H60.04c1.05-.53,2.11-1.05,3.19-1.57,6.09-2.92,12.6-5.76,19.51-8.49h584.58c6.93,2.74,13.45,5.58,19.55,8.52,1.07.51,2.12,1.02,3.15,1.54Z"/><path class="cls-12" d="m667.32,57.94H82.74c14.77-5.85,31.37-11.25,49.53-16.11h485.52c18.16,4.86,34.75,10.26,49.53,16.11Z"/><path class="cls-12" d="m732.53,111.36H17.53c2.04-5.18,5.05-10.25,8.96-15.19,7.88-9.96,19.41-19.41,34.08-28.17h628.92c14.67,8.76,26.2,18.21,34.08,28.17,3.91,4.94,6.92,10.01,8.96,15.19Z"/><path class="cls-7" d="m735.72,127.57c0,.25,0,.51-.01.76-20.59.84-74.36,1.58-143.96,2.14-152.95,1.2-382.34,1.51-503.96,0-34.63-.43-60.53-1-73.43-1.75-.01-.38-.02-.77-.02-1.15,0-3.21.37-6.39,1.1-9.54h719.18c.73,3.15,1.1,6.33,1.1,9.54Z"/><path class="cls-10" d="m686.87,66.46c-6.1-2.94-12.62-5.78-19.55-8.52-14.78-5.85-31.37-11.25-49.53-16.11h12.87c14.67,4.96,28.07,10.35,40.03,16.11,5.73,2.75,11.13,5.59,16.18,8.52Z"/><path class="cls-9" d="m667.32,57.94H82.74c14.77-5.85,31.37-11.25,49.53-16.11h485.52c18.16,4.86,34.75,10.26,49.53,16.11Z"/><path class="cls-2" d="m744.83,127.58c0,.26-3.18.51-9.12.75.01-.25.01-.51.01-.76,0-3.21-.37-6.39-1.1-9.54-.51-2.24-1.21-4.47-2.09-6.67-2.04-5.18-5.05-10.25-8.96-15.19-7.88-9.96-19.41-19.41-34.08-28.17h.53c17.43,8.68,31.15,18.14,40.51,28.17,4.61,4.93,8.16,10.01,10.56,15.19,1.03,2.21,1.85,4.43,2.45,6.67.86,3.15,1.29,6.33,1.29,9.55Z"/><path class="cls-7" d="m723.57,96.17H26.49c7.88-9.96,19.41-19.41,34.08-28.17h628.92c14.67,8.76,26.2,18.21,34.08,28.17Z"/><path class="cls-1" d="m734.62,118.03H15.44c.51-2.24,1.21-4.47,2.09-6.67h715c.88,2.2,1.58,4.43,2.09,6.67Z"/><path class="cls-2" d="m591.75,130.47c-152.95,1.2-382.34,1.51-503.96,0h503.96Z"/><path class="cls-1" d="m729.05,150.96c-3.34,5.78-7.9,11.41-13.57,16.85H34.58c-5.67-5.44-10.23-11.07-13.57-16.85h708.04Z"/><path class="cls-6" d="m715.48,167.81c-1.34,1.29-2.74,2.57-4.2,3.83H38.78c-1.46-1.26-2.86-2.54-4.2-3.83h680.9Z"/><path class="cls-10" d="m711.28,171.64c-10.57,9.16-24.34,17.77-40.84,25.69h-226.04v-19.52h-138.74v19.52H79.62c-16.5-7.92-30.27-16.53-40.84-25.69h672.5Z"/><path class="cls-2" d="m715.48,167.81c-1.34,1.29-2.74,2.57-4.2,3.83H38.78c-1.46-1.26-2.86-2.54-4.2-3.83h680.9Z"/><path class="cls-8" d="m205.48,37.94h-74.07c15.62-4.82,32.51-9.19,50.48-13.04l23.59,13.04Z"/><path class="cls-6" d="m350.33,37.94h-20.86l-49.93-27.6c5.98-.56,12.03-1.06,18.14-1.51l52.65,29.11Z"/><path class="cls-6" d="m367.94,37.94h-14.45l-53.01-29.31c4.28-.31,8.6-.58,12.94-.83l54.52,30.14Z"/><path class="cls-6" d="m405.66,37.94h-17.05l-56.2-31.07c5.33-.21,10.7-.38,16.11-.52l57.14,31.59Z"/><path class="cls-6" d="m420.71,37.94h-11.9l-57.26-31.66c3.84-.08,7.69-.14,11.57-.18l57.59,31.84Z"/><path class="cls-6" d="m445.19,37.94h-21.34l-57.64-31.87c2.93-.03,5.87-.04,8.82-.04,4.21,0,8.39.02,12.57.07h.01l57.58,31.84Z"/><path class="cls-6" d="m519.68,37.94h-33.16l-55.04-30.43c12.94.68,25.66,1.6,38.11,2.74l50.09,27.69Z"/><path class="cls-8" d="m618.65,37.94h-16.29l-16.09-8.9c11.31,2.76,22.11,5.73,32.38,8.9Z"/><path class="cls-2" d="m408.81,37.94h-3.15l-57.14-31.59c1.01-.02,2-.04,3.02-.07h0l57.26,31.66Z"/><path class="cls-2" d="m353.49,37.94h-3.16l-52.65-29.11c.93-.07,1.86-.14,2.8-.2l53.01,29.31Z"/><path class="cls-2" d="m388.61,37.94h-20.67l-54.52-30.14c6.27-.37,12.61-.68,18.99-.93l56.2,31.07Z"/><path class="cls-2" d="m423.85,37.94h-3.14l-57.59-31.84c1.03-.02,2.06-.03,3.09-.03l57.64,31.87Z"/><path class="cls-2" d="m486.52,37.94h-41.33l-57.58-31.84c14.87.17,29.51.65,43.87,1.41l55.04,30.43Z"/><path class="cls-2" d="m329.47,37.94h-123.99l-23.59-13.04c29.86-6.39,62.69-11.34,97.65-14.56l49.93,27.6Z"/><path class="cls-2" d="m602.36,37.94h-82.68l-50.09-27.69c42.53,3.88,81.93,10.32,116.67,18.79h.01l16.09,8.9Z"/><rect class="cls-3" x="378.8" y="177.81" width="10.78" height="48.19"/><rect class="cls-5" x="343.08" y="177.81" width="22" height="48.19"/><polygon class="cls-5" points="326.83 177.81 326.83 226 325.68 226 324.33 224.99 324.33 177.81 326.83 177.81"/><polygon class="cls-5" points="318.33 177.81 318.33 220.49 315.83 218.62 315.83 177.81 318.33 177.81"/><rect class="cls-5" x="402.63" y="177.81" width="2.7" height="48.19"/><polygon class="cls-5" points="432.59 177.81 432.59 219.85 424.38 226 421.22 226 421.22 177.81 432.59 177.81"/><rect class="cls-7" x="336.07" y="157" width="78.3" height="50.33"/><polygon class="cls-11" points="454.41 157 454.41 196.75 444.33 207.33 413.99 207.33 413.99 157 454.41 157"/><polygon class="cls-11" points="336.07 157 336.07 207.33 305.58 207.33 295.66 197.33 295.66 157 336.07 157"/><rect class="cls-2" x="293.87" y="144.99" width="162.71" height="15.51"/><polygon class="cls-13" points="454.41 157 454.41 196.75 444.33 207.33 305.58 207.33 295.65 197.33 295.65 157 454.41 157"/><path class="cls-2" d="m375.03,5c4.21,0,8.39.02,12.57.07h0c14.87.18,29.51.67,43.87,1.46,12.94.7,25.66,1.65,38.11,2.83,42.53,4,81.93,10.65,116.67,19.39h.01c11.31,2.85,22.11,5.92,32.38,9.19,4.09,1.26,8.09,2.56,12.01,3.89,14.67,4.96,28.07,10.35,40.03,16.11,5.73,2.75,11.13,5.59,16.18,8.52,1.07.51,2.12,1.02,3.15,1.54,17.43,8.68,31.15,18.14,40.51,28.17,4.61,4.93,8.16,10.01,10.56,15.19,1.03,2.21,1.85,4.43,2.45,6.67.36,1.32.65,2.65.85,3.98h.44c-.02.47-.1.97-.24,1.49.16,1.35.24,2.71.24,4.08,0,.12-.71.25-2.09.36-3.25,5.89-9.29,12.68-10.84,17.36-.81,1.9-1.77,3.79-2.85,5.66-3.34,5.78-7.9,11.41-13.57,16.85-1.34,1.29-2.74,2.57-4.2,3.83-10.57,9.16-24.34,17.77-40.84,25.69h-216.58l-9.46,9.93v3.74l-11.81,8.85-8.21,6.15h-98.7l-1.35-1.01-6-4.5-2.5-1.87-10.17-7.62v-3.67h-.08l-9.93-10H79.62c-16.5-7.92-30.27-16.53-40.84-25.69-1.46-1.26-2.86-2.54-4.2-3.83-5.67-5.44-10.23-11.07-13.57-16.85-1.08-1.87-2.04-3.76-2.85-5.66-1.53-4.62-7.45-11.3-10.72-17.14-1.46-.18-2.22-.38-2.22-.58,0-1.37.08-2.73.24-4.08-.14-.52-.22-1.02-.24-1.5l.43.02c.21-1.34.5-2.67.86-3.99.6-2.24,1.42-4.46,2.45-6.67,2.4-5.18,5.95-10.26,10.56-15.19,9.36-10.03,23.09-19.49,40.52-28.17,1.05-.53,2.11-1.05,3.19-1.57,5.04-2.91,10.42-5.75,16.14-8.49,11.96-5.76,25.36-11.15,40.03-16.11,3.91-1.33,7.92-2.63,12.01-3.89,15.62-4.98,32.51-9.49,50.48-13.46,29.86-6.6,62.69-11.71,97.65-15.03,5.98-.58,12.03-1.1,18.14-1.56.93-.07,1.86-.14,2.8-.21,4.28-.32,8.6-.59,12.94-.85,6.27-.38,12.61-.7,18.99-.96,5.33-.22,10.7-.4,16.11-.54,1.01-.02,2-.04,3.02-.07h0c3.84-.08,7.69-.15,11.57-.19,1.03-.02,2.06-.03,3.09-.03,2.93-.03,5.87-.04,8.82-.04m0-5c-3.31,0-6.21.01-8.85.04-1.05,0-2.1.01-3.16.03-3.32.03-6.89.09-11.52.19h-.11c-1,.03-1.98.05-2.97.07-5.44.14-10.88.32-16.22.54-6.41.26-12.84.59-19.09.96-4.13.25-8.56.52-13.01.85l-2.17.16-.64.05c-6.13.46-12.27.99-18.25,1.57-34.69,3.29-67.75,8.38-98.25,15.12-18,3.98-35.13,8.55-50.92,13.58-4.04,1.24-8.13,2.57-12.1,3.92-14.84,5.02-28.5,10.51-40.59,16.34-5.64,2.7-11.13,5.59-16.31,8.57-1.12.54-2.14,1.04-3.1,1.53-18.16,9.04-32.27,18.88-41.92,29.22-4.99,5.34-8.84,10.89-11.44,16.5-1.15,2.47-2.08,4.99-2.74,7.48,0,.03-.02.06-.03.09l-1.66-.08.23,5.46c.02.52.08,1.04.18,1.57-.12,1.26-.18,2.53-.18,3.8,0,3.09,2.12,4.42,4.05,5.03,1.23,1.97,2.62,3.95,3.98,5.87,2.21,3.13,4.5,6.38,5.16,8.39l.07.2.08.19c.86,2.02,1.91,4.11,3.12,6.2,3.53,6.11,8.39,12.15,14.44,17.96,1.43,1.37,2.91,2.72,4.39,4.01,10.78,9.34,24.89,18.23,41.94,26.41l1.03.49h215.09l7.09,7.14v4.03l2,1.5,10.17,7.62,2.5,1.87,5.99,4.5,1.35,1.01,1.33,1h102.03l1.33-1,8.21-6.15,11.81-8.85,2-1.5v-4.24l6.6-6.93h215.58l1.03-.49c17.05-8.19,31.17-17.07,41.95-26.42,1.48-1.28,2.96-2.63,4.39-4.01,6.04-5.8,10.9-11.84,14.43-17.95,1.21-2.09,2.26-4.18,3.12-6.2l.08-.19.07-.2c.67-2.02,2.96-5.27,5.18-8.42,1.37-1.94,2.77-3.93,4.01-5.91,3.88-1.04,4-4.55,4-4.96,0-1.27-.06-2.54-.18-3.8.1-.53.16-1.06.18-1.57l.22-5.33-1.63.04c-.02-.07-.04-.14-.05-.2-.66-2.46-1.58-4.98-2.74-7.47-2.59-5.6-6.44-11.15-11.44-16.49-9.66-10.35-23.77-20.18-41.93-29.23-.9-.45-1.88-.93-3.05-1.49-5.06-2.93-10.56-5.82-16.35-8.6-12.09-5.82-25.75-11.32-40.59-16.34-4.08-1.38-8.16-2.71-12.14-3.93-10.35-3.3-21.34-6.42-32.63-9.26l-.6-.15h-.01c-35.54-8.9-74.84-15.42-116.82-19.37-12.59-1.19-25.48-2.15-38.31-2.84-14.43-.79-29.26-1.29-44.08-1.47h-.03s-.03,0-.03,0c-3.91-.05-8.04-.07-12.58-.07h0Z"/></svg>